<svg width="32" height="32" viewBox="0 0 32 32" fill="none" xmlns="http://www.w3.org/2000/svg">
<g id="SVG">
<path id="Vector" d="M16.5 11.5C16.5 9.9087 15.8679 8.38258 14.7426 7.25736C13.6174 6.13214 12.0913 5.5 10.5 5.5H10M10 5.5H8.632C7.27091 5.5 5.96556 6.04069 5.00313 7.00313C4.52658 7.47968 4.14856 8.04543 3.89065 8.66807C3.63274 9.29071 3.5 9.95806 3.5 10.632C3.49993 11.5816 3.80093 12.5068 4.35973 13.2745C4.91853 14.0423 5.70637 14.6131 6.61 14.905L13.39 17.095C14.2936 17.3869 15.0815 17.9577 15.6403 18.7255C16.1991 19.4932 16.5001 20.4184 16.5 21.368C16.5 22.7291 15.9593 24.0344 14.9969 24.9969C14.0344 25.9593 12.7291 26.5 11.368 26.5H9.5C7.9087 26.5 6.38258 25.8679 5.25736 24.7426C4.13214 23.6174 3.5 22.0913 3.5 20.5M10 5.5V3.5M10 5.5V28.5" stroke="#002237" stroke-width="2" strokeLinecap="square" strokeLinejoin="round"/>
<path id="Vector_2" d="M26 10.5L23.5 13H28.5L26 10.5Z" stroke="#002237" stroke-width="3" strokeLinecap="square" strokeLinejoin="round"/>
</g>
</svg>
