<svg width="1435" height="816" viewBox="0 0 1435 816" fill="none" xmlns="http://www.w3.org/2000/svg">
<g clip-path="url(#clip0_1_29)">
<g filter="url(#filter0_d_1_29)">
<path d="M201.602 85.9687C201.602 65.4421 217.715 48.8008 237.59 48.8008H1200.96C1220.84 48.8008 1236.95 65.4421 1236.95 85.9687V704.959C1236.95 725.486 1220.84 742.127 1200.96 742.127H237.59C217.715 742.127 201.602 725.486 201.602 704.959V85.9687Z" fill="white"/>
</g>
<path d="M244.515 86.6817C244.515 91.0246 241.107 94.5438 236.902 94.5438C232.698 94.5438 229.289 91.0246 229.289 86.6817C229.289 82.3389 232.698 78.8184 236.902 78.8184C241.107 78.8184 244.515 82.3389 244.515 86.6817Z" fill="#001E30"/>
<path d="M273.58 86.6817C273.58 91.0246 270.173 94.5438 265.968 94.5438C261.764 94.5438 258.355 91.0246 258.355 86.6817C258.355 82.3389 261.764 78.8184 265.968 78.8184C270.173 78.8184 273.58 82.3389 273.58 86.6817Z" fill="#D9D9D9"/>
<path d="M302.647 86.6817C302.647 91.0246 299.239 94.5438 295.034 94.5438C290.831 94.5438 287.422 91.0246 287.422 86.6817C287.422 82.3389 290.831 78.8184 295.034 78.8184C299.239 78.8184 302.647 82.3389 302.647 86.6817Z" fill="#D9D9D9"/>
<path d="M399.51 163.184V173.603H397.378V165.275H397.319L395.008 166.77V164.817L397.507 163.184H399.51Z" fill="black"/>
<path d="M405.868 173.832C405.02 173.828 404.292 173.612 403.68 173.185C403.073 172.758 402.605 172.139 402.275 171.328C401.95 170.518 401.79 169.543 401.793 168.403C401.793 167.267 401.955 166.298 402.282 165.497C402.609 164.697 403.077 164.087 403.684 163.672C404.297 163.249 405.023 163.039 405.868 163.039C406.712 163.039 407.437 163.249 408.045 163.672C408.655 164.091 409.125 164.702 409.454 165.502C409.782 166.3 409.945 167.267 409.942 168.403C409.942 169.546 409.778 170.523 409.448 171.334C409.124 172.144 408.658 172.763 408.05 173.191C407.443 173.619 406.714 173.832 405.868 173.832ZM405.868 172.006C406.447 172.006 406.907 171.705 407.252 171.105C407.597 170.505 407.768 169.604 407.764 168.403C407.764 167.613 407.685 166.953 407.527 166.429C407.374 165.902 407.153 165.507 406.867 165.243C406.584 164.978 406.253 164.846 405.868 164.846C405.293 164.846 404.832 165.142 404.488 165.737C404.143 166.33 403.968 167.219 403.965 168.403C403.965 169.204 404.043 169.871 404.197 170.408C404.354 170.941 404.577 171.341 404.863 171.609C405.148 171.873 405.483 172.006 405.868 172.006Z" fill="black"/>
<path d="M415.418 173.832C414.571 173.828 413.841 173.612 413.231 173.185C412.624 172.758 412.155 172.139 411.828 171.328C411.503 170.518 411.34 169.543 411.344 168.403C411.344 167.267 411.506 166.298 411.831 165.497C412.16 164.697 412.629 164.087 413.236 163.672C413.846 163.249 414.575 163.039 415.418 163.039C416.263 163.039 416.989 163.249 417.595 163.672C418.208 164.091 418.676 164.702 419.004 165.502C419.334 166.3 419.495 167.267 419.493 168.403C419.493 169.546 419.328 170.523 419 171.334C418.675 172.144 418.209 172.763 417.601 173.191C416.993 173.619 416.266 173.832 415.418 173.832ZM415.418 172.006C415.996 172.006 416.458 171.705 416.803 171.105C417.148 170.505 417.319 169.604 417.315 168.403C417.315 167.613 417.236 166.953 417.079 166.429C416.924 165.902 416.704 165.507 416.419 165.243C416.136 164.978 415.803 164.846 415.418 164.846C414.844 164.846 414.384 165.142 414.039 165.737C413.695 166.33 413.52 167.219 413.516 168.403C413.516 169.204 413.594 169.871 413.749 170.408C413.906 170.941 414.128 171.341 414.413 171.609C414.7 171.873 415.035 172.006 415.418 172.006Z" fill="black"/>
<path d="M426.537 171.648V171.099C426.537 170.681 426.622 170.298 426.793 169.949C426.967 169.597 427.218 169.315 427.547 169.105C427.878 168.891 428.283 168.785 428.759 168.785C429.242 168.785 429.648 168.889 429.976 169.098C430.308 169.309 430.557 169.59 430.724 169.944C430.894 170.294 430.981 170.679 430.981 171.099V171.648C430.981 172.065 430.894 172.451 430.724 172.802C430.553 173.153 430.302 173.433 429.971 173.644C429.639 173.857 429.236 173.964 428.759 173.964C428.276 173.964 427.871 173.857 427.542 173.644C427.213 173.433 426.963 173.153 426.793 172.802C426.622 172.451 426.537 172.065 426.537 171.648ZM427.971 171.099V171.648C427.971 171.889 428.027 172.117 428.138 172.33C428.252 172.544 428.459 172.651 428.759 172.651C429.058 172.651 429.262 172.545 429.369 172.335C429.482 172.126 429.537 171.896 429.537 171.648V171.099C429.537 170.852 429.484 170.62 429.379 170.407C429.274 170.194 429.068 170.087 428.759 170.087C428.463 170.087 428.258 170.194 428.143 170.407C428.028 170.62 427.971 170.852 427.971 171.099ZM421.359 165.685V165.136C421.359 164.714 421.447 164.329 421.619 163.981C421.794 163.628 422.046 163.347 422.374 163.137C422.706 162.926 423.106 162.82 423.576 162.82C424.063 162.82 424.469 162.926 424.798 163.137C425.126 163.347 425.376 163.628 425.547 163.981C425.718 164.329 425.802 164.714 425.802 165.136V165.685C425.802 166.106 425.716 166.492 425.542 166.84C425.371 167.189 425.121 167.469 424.788 167.68C424.459 167.886 424.056 167.989 423.576 167.989C423.097 167.989 422.691 167.885 422.358 167.674C422.031 167.46 421.782 167.18 421.609 166.834C421.442 166.485 421.359 166.102 421.359 165.685ZM422.803 165.136V165.685C422.803 165.933 422.858 166.161 422.971 166.373C423.086 166.584 423.287 166.687 423.576 166.687C423.878 166.687 424.083 166.584 424.192 166.373C424.303 166.161 424.359 165.933 424.359 165.685V165.136C424.359 164.887 424.306 164.657 424.201 164.444C424.097 164.23 423.888 164.123 423.576 164.123C423.283 164.123 423.081 164.231 422.971 164.448C422.858 164.666 422.803 164.895 422.803 165.136ZM422.009 173.601L428.946 163.182H430.237L423.299 173.601H422.009Z" fill="black"/>
<path d="M661.113 163.184V173.603H658.979V165.275H658.922L656.609 166.77V164.817L659.108 163.184H661.113Z" fill="black"/>
<path d="M667.473 173.832C666.627 173.828 665.897 173.612 665.287 173.185C664.68 172.758 664.211 172.139 663.882 171.328C663.557 170.518 663.396 169.543 663.398 168.403C663.398 167.267 663.562 166.298 663.887 165.497C664.216 164.697 664.684 164.087 665.291 163.672C665.902 163.249 666.63 163.039 667.473 163.039C668.318 163.039 669.043 163.249 669.651 163.672C670.261 164.091 670.732 164.702 671.06 165.502C671.389 166.3 671.551 167.267 671.547 168.403C671.547 169.546 671.383 170.523 671.055 171.334C670.731 172.144 670.265 172.763 669.657 173.191C669.048 173.619 668.321 173.832 667.473 173.832ZM667.473 172.006C668.052 172.006 668.514 171.705 668.859 171.105C669.202 170.505 669.375 169.604 669.37 168.403C669.37 167.613 669.291 166.953 669.133 166.429C668.98 165.902 668.76 165.507 668.473 165.243C668.191 164.978 667.858 164.846 667.473 164.846C666.9 164.846 666.438 165.142 666.093 165.737C665.75 166.33 665.575 167.219 665.572 168.403C665.572 169.204 665.65 169.871 665.803 170.408C665.961 170.941 666.182 171.341 666.468 171.609C666.753 171.873 667.088 172.006 667.473 172.006Z" fill="black"/>
<path d="M677.023 173.832C676.175 173.828 675.447 173.612 674.835 173.185C674.228 172.758 673.761 172.139 673.432 171.328C673.107 170.518 672.946 169.543 672.949 168.403C672.949 167.267 673.111 166.298 673.437 165.497C673.764 164.697 674.234 164.087 674.842 163.672C675.452 163.249 676.179 163.039 677.023 163.039C677.867 163.039 678.594 163.249 679.201 163.672C679.812 164.091 680.281 164.702 680.609 165.502C680.938 166.3 681.101 167.267 681.098 168.403C681.098 169.546 680.933 170.523 680.606 171.334C680.279 172.144 679.813 172.763 679.206 173.191C678.598 173.619 677.872 173.832 677.023 173.832ZM677.023 172.006C677.602 172.006 678.062 171.705 678.407 171.105C678.753 170.505 678.923 169.604 678.921 168.403C678.921 167.613 678.842 166.953 678.684 166.429C678.529 165.902 678.308 165.507 678.023 165.243C677.741 164.978 677.408 164.846 677.023 164.846C676.448 164.846 675.989 165.142 675.644 165.737C675.299 166.33 675.126 167.219 675.121 168.403C675.121 169.204 675.198 169.871 675.353 170.408C675.512 170.941 675.733 171.341 676.018 171.609C676.304 171.873 676.639 172.006 677.023 172.006Z" fill="black"/>
<path d="M688.144 171.648V171.099C688.144 170.681 688.227 170.298 688.4 169.949C688.572 169.597 688.825 169.315 689.152 169.105C689.485 168.891 689.889 168.785 690.365 168.785C690.849 168.785 691.254 168.889 691.582 169.098C691.914 169.309 692.164 169.59 692.331 169.944C692.501 170.294 692.586 170.679 692.586 171.099V171.648C692.586 172.065 692.501 172.451 692.331 172.802C692.159 173.153 691.909 173.433 691.576 173.644C691.246 173.857 690.841 173.964 690.365 173.964C689.882 173.964 689.476 173.857 689.149 173.644C688.819 173.433 688.57 173.153 688.4 172.802C688.227 172.451 688.144 172.065 688.144 171.648ZM689.576 171.099V171.648C689.576 171.889 689.632 172.117 689.744 172.33C689.859 172.544 690.066 172.651 690.365 172.651C690.664 172.651 690.867 172.545 690.976 172.335C691.087 172.126 691.144 171.896 691.144 171.648V171.099C691.144 170.852 691.09 170.62 690.985 170.407C690.88 170.194 690.674 170.087 690.365 170.087C690.069 170.087 689.864 170.194 689.749 170.407C689.635 170.62 689.576 170.852 689.576 171.099ZM682.965 165.685V165.136C682.965 164.714 683.052 164.329 683.226 163.981C683.4 163.628 683.652 163.347 683.98 163.137C684.312 162.926 684.712 162.82 685.181 162.82C685.669 162.82 686.076 162.926 686.404 163.137C686.732 163.347 686.982 163.628 687.152 163.981C687.324 164.329 687.409 164.714 687.409 165.136V165.685C687.409 166.106 687.321 166.492 687.149 166.84C686.976 167.189 686.726 167.469 686.394 167.68C686.066 167.886 685.662 167.989 685.181 167.989C684.702 167.989 684.297 167.885 683.965 167.674C683.637 167.46 683.387 167.18 683.216 166.834C683.049 166.485 682.965 166.102 682.965 165.685ZM684.409 165.136V165.685C684.409 165.933 684.465 166.161 684.576 166.373C684.691 166.584 684.894 166.687 685.181 166.687C685.485 166.687 685.69 166.584 685.797 166.373C685.91 166.161 685.965 165.933 685.965 165.685V165.136C685.965 164.887 685.912 164.657 685.807 164.444C685.704 164.23 685.495 164.123 685.181 164.123C684.89 164.123 684.687 164.231 684.576 164.448C684.465 164.666 684.409 164.895 684.409 165.136ZM683.616 173.601L690.552 163.182H691.844L684.906 173.601H683.616Z" fill="black"/>
<path d="M922.439 173.602V172.015L926.029 168.58C926.335 168.277 926.591 168.002 926.799 167.758C927.009 167.512 927.169 167.273 927.276 167.04C927.384 166.802 927.439 166.547 927.439 166.27C927.439 165.966 927.371 165.702 927.236 165.483C927.101 165.258 926.917 165.087 926.685 164.968C926.451 164.846 926.187 164.784 925.892 164.784C925.584 164.784 925.314 164.849 925.084 164.978C924.854 165.109 924.677 165.293 924.552 165.533C924.427 165.775 924.364 166.06 924.364 166.393H922.34C922.34 165.711 922.49 165.12 922.789 164.618C923.086 164.114 923.506 163.727 924.044 163.452C924.582 163.177 925.204 163.039 925.906 163.039C926.63 163.039 927.259 163.172 927.794 163.437C928.332 163.699 928.75 164.06 929.05 164.526C929.349 164.991 929.497 165.523 929.497 166.123C929.497 166.516 929.424 166.906 929.271 167.288C929.124 167.671 928.86 168.097 928.477 168.566C928.097 169.031 927.56 169.588 926.867 170.24L925.394 171.73V171.801H929.631V173.602H922.439Z" fill="black"/>
<path d="M934.861 173.746C934.165 173.746 933.545 173.613 933 173.349C932.457 173.084 932.028 172.72 931.708 172.255C931.39 171.791 931.223 171.257 931.211 170.657H933.281C933.302 171.062 933.467 171.389 933.773 171.64C934.078 171.891 934.442 172.016 934.861 172.016C935.196 172.016 935.492 171.94 935.748 171.788C936.007 171.63 936.21 171.416 936.355 171.142C936.501 170.864 936.576 170.545 936.576 170.185C936.576 169.818 936.5 169.496 936.35 169.218C936.201 168.94 935.996 168.723 935.733 168.567C935.471 168.411 935.17 168.332 934.832 168.327C934.536 168.327 934.25 168.39 933.97 168.515C933.695 168.642 933.478 168.814 933.325 169.029L931.427 168.679L931.906 163.184H938.073V164.985H933.663L933.403 167.595H933.462C933.641 167.337 933.907 167.124 934.266 166.953C934.623 166.785 935.025 166.699 935.467 166.699C936.075 166.699 936.617 166.847 937.093 167.142C937.57 167.436 937.945 167.843 938.222 168.359C938.497 168.87 938.633 169.46 938.63 170.129C938.633 170.83 938.477 171.455 938.157 172.001C937.842 172.545 937.4 172.972 936.832 173.283C936.267 173.593 935.61 173.746 934.861 173.746Z" fill="black"/>
<path d="M945.642 171.648V171.099C945.642 170.681 945.727 170.298 945.899 169.949C946.072 169.597 946.324 169.315 946.651 169.105C946.984 168.891 947.387 168.785 947.864 168.785C948.347 168.785 948.752 168.889 949.081 169.098C949.412 169.309 949.662 169.59 949.83 169.944C950 170.294 950.086 170.679 950.086 171.099V171.648C950.086 172.065 950 172.451 949.83 172.802C949.66 173.153 949.407 173.433 949.076 173.644C948.745 173.857 948.34 173.964 947.864 173.964C947.381 173.964 946.975 173.857 946.647 173.644C946.32 173.433 946.069 173.153 945.899 172.802C945.727 172.451 945.642 172.065 945.642 171.648ZM947.076 171.099V171.648C947.076 171.889 947.132 172.117 947.244 172.33C947.359 172.544 947.565 172.651 947.864 172.651C948.164 172.651 948.366 172.545 948.475 172.335C948.586 172.126 948.642 171.896 948.642 171.648V171.099C948.642 170.852 948.59 170.62 948.484 170.407C948.38 170.194 948.172 170.087 947.864 170.087C947.567 170.087 947.364 170.194 947.249 170.407C947.134 170.62 947.076 170.852 947.076 171.099ZM940.465 165.685V165.136C940.465 164.714 940.551 164.329 940.726 163.981C940.899 163.628 941.151 163.347 941.479 163.137C941.811 162.926 942.211 162.82 942.682 162.82C943.167 162.82 943.575 162.926 943.902 163.137C944.232 163.347 944.481 163.628 944.651 163.981C944.824 164.329 944.907 164.714 944.907 165.136V165.685C944.907 166.106 944.821 166.492 944.647 166.84C944.476 167.189 944.225 167.469 943.892 167.68C943.565 167.886 943.161 167.989 942.682 167.989C942.201 167.989 941.796 167.885 941.465 167.674C941.136 167.46 940.886 167.18 940.716 166.834C940.549 166.485 940.465 166.102 940.465 165.685ZM941.909 165.136V165.685C941.909 165.933 941.964 166.161 942.076 166.373C942.19 166.584 942.392 166.687 942.682 166.687C942.984 166.687 943.189 166.584 943.297 166.373C943.409 166.161 943.465 165.933 943.465 165.685V165.136C943.465 164.887 943.412 164.657 943.307 164.444C943.202 164.23 942.994 164.123 942.682 164.123C942.39 164.123 942.187 164.231 942.076 164.448C941.964 164.666 941.909 164.895 941.909 165.136ZM941.115 173.601L948.051 163.182H949.342L942.405 173.601H941.115Z" fill="black"/>
<path fill-rule="evenodd" clip-rule="evenodd" d="M412.686 194.699C426.875 194.699 438.377 182.82 438.377 168.166C438.377 153.513 426.875 141.633 412.686 141.633C398.497 141.633 386.996 153.513 386.996 168.166C386.996 182.82 398.497 194.699 412.686 194.699ZM412.686 203.19C431.415 203.19 446.597 187.51 446.597 168.166C446.597 148.823 431.415 133.143 412.686 133.143C393.956 133.143 378.773 148.823 378.773 168.166C378.773 187.51 393.956 203.19 412.686 203.19Z" fill="#001E30"/>
<path fill-rule="evenodd" clip-rule="evenodd" d="M674.294 194.699C688.483 194.699 699.985 182.82 699.985 168.166C699.985 153.513 688.483 141.633 674.294 141.633C660.107 141.633 648.604 153.513 648.604 168.166C648.604 182.82 660.107 194.699 674.294 194.699ZM674.294 203.19C693.023 203.19 708.207 187.51 708.207 168.166C708.207 148.823 693.023 133.143 674.294 133.143C655.565 133.143 640.383 148.823 640.383 168.166C640.383 187.51 655.565 203.19 674.294 203.19Z" fill="#001E30"/>
<path fill-rule="evenodd" clip-rule="evenodd" d="M935.901 194.699C950.09 194.699 961.592 182.82 961.592 168.166C961.592 153.513 950.09 141.633 935.901 141.633C921.713 141.633 910.211 153.513 910.211 168.166C910.211 182.82 921.713 194.699 935.901 194.699ZM935.901 203.19C954.63 203.19 969.812 187.51 969.812 168.166C969.812 148.823 954.63 133.143 935.901 133.143C917.171 133.143 901.988 148.823 901.988 168.166C901.988 187.51 917.171 203.19 935.901 203.19Z" fill="#D9DBE8"/>
<path fill-rule="evenodd" clip-rule="evenodd" d="M939.518 141.868C939.673 141.91 939.832 141.945 939.991 141.969C941.956 142.297 943.883 142.86 945.731 143.651C948.848 144.985 951.68 146.941 954.066 149.404C956.452 151.868 958.345 154.793 959.636 158.012C960.402 159.922 960.947 161.912 961.263 163.942C961.29 164.106 961.322 164.268 961.362 164.428C961.406 164.604 961.46 164.777 961.518 164.945C962.175 166.783 963.771 168.167 965.701 168.167C967.97 168.167 969.836 166.26 969.562 163.933C969.51 163.485 969.447 163.037 969.378 162.59C969.371 162.545 969.363 162.501 969.356 162.455C968.935 159.822 968.222 157.242 967.228 154.764C965.525 150.515 963.027 146.654 959.878 143.402C956.73 140.15 952.991 137.569 948.876 135.81C946.477 134.784 943.978 134.048 941.428 133.613C941.386 133.606 941.342 133.598 941.298 133.591C940.867 133.518 940.432 133.455 939.997 133.401C937.745 133.117 935.898 135.043 935.898 137.387C935.898 139.382 937.24 141.029 939.017 141.707C939.181 141.769 939.348 141.822 939.518 141.868Z" fill="#001E30"/>
<path d="M439.918 225.02H255.347C251.657 225.02 248.664 228.109 248.664 231.92V253.483C248.664 257.294 251.657 260.383 255.347 260.383H439.918C443.608 260.383 446.599 257.294 446.599 253.483V231.92C446.599 228.109 443.608 225.02 439.918 225.02Z" fill="#001E30"/>
<path d="M317.895 246.783H316.25L319.244 238H321.146L324.142 246.783H322.497L320.228 239.801H320.161L317.895 246.783ZM317.949 243.34H322.431V244.618H317.949V243.34Z" fill="white"/>
<path d="M327.371 246.899C326.87 246.899 326.421 246.766 326.026 246.5C325.63 246.234 325.317 245.848 325.087 245.342C324.857 244.836 324.742 244.221 324.742 243.498C324.742 242.766 324.858 242.148 325.091 241.646C325.327 241.14 325.643 240.758 326.042 240.501C326.441 240.24 326.885 240.109 327.375 240.109C327.748 240.109 328.056 240.175 328.297 240.307C328.538 240.436 328.728 240.592 328.87 240.774C329.011 240.955 329.121 241.125 329.198 241.286H329.261V238H330.767V246.783H329.29V245.745H329.198C329.121 245.906 329.008 246.075 328.862 246.256C328.715 246.433 328.521 246.584 328.281 246.71C328.04 246.835 327.736 246.899 327.371 246.899ZM327.791 245.625C328.108 245.625 328.38 245.537 328.605 245.36C328.828 245.179 328.998 244.929 329.115 244.609C329.231 244.288 329.29 243.915 329.29 243.489C329.29 243.063 329.231 242.693 329.115 242.379C329.002 242.064 328.832 241.82 328.608 241.646C328.387 241.471 328.115 241.384 327.791 241.384C327.456 241.384 327.176 241.474 326.952 241.653C326.727 241.834 326.558 242.083 326.445 242.4C326.332 242.717 326.275 243.08 326.275 243.489C326.275 243.901 326.332 244.269 326.445 244.592C326.561 244.912 326.732 245.165 326.956 245.351C327.183 245.534 327.461 245.625 327.791 245.625Z" fill="white"/>
<path d="M334.734 246.899C334.233 246.899 333.785 246.766 333.389 246.5C332.993 246.234 332.68 245.848 332.45 245.342C332.22 244.836 332.105 244.221 332.105 243.498C332.105 242.766 332.222 242.148 332.454 241.646C332.69 241.14 333.007 240.758 333.405 240.501C333.804 240.24 334.249 240.109 334.739 240.109C335.113 240.109 335.419 240.175 335.66 240.307C335.902 240.436 336.093 240.592 336.233 240.774C336.374 240.955 336.484 241.125 336.562 241.286H336.624V238H338.132V246.783H336.653V245.745H336.562C336.484 245.906 336.372 246.075 336.225 246.256C336.078 246.433 335.884 246.584 335.644 246.71C335.403 246.835 335.1 246.899 334.734 246.899ZM335.154 245.625C335.472 245.625 335.744 245.537 335.968 245.36C336.192 245.179 336.362 244.929 336.478 244.609C336.595 244.288 336.653 243.915 336.653 243.489C336.653 243.063 336.595 242.693 336.478 242.379C336.365 242.064 336.197 241.82 335.972 241.646C335.75 241.471 335.478 241.384 335.154 241.384C334.819 241.384 334.539 241.474 334.315 241.653C334.09 241.834 333.922 242.083 333.808 242.4C333.695 242.717 333.638 243.08 333.638 243.489C333.638 243.901 333.695 244.269 333.808 244.592C333.924 244.912 334.095 245.165 334.319 245.351C334.547 245.534 334.824 245.625 335.154 245.625Z" fill="white"/>
<path d="M344.471 246.917C344.067 246.917 343.702 246.844 343.378 246.695C343.057 246.543 342.803 246.321 342.615 246.025C342.43 245.731 342.336 245.368 342.336 244.937C342.336 244.565 342.403 244.258 342.536 244.014C342.668 243.771 342.85 243.578 343.08 243.432C343.31 243.286 343.568 243.175 343.856 243.101C344.147 243.024 344.447 242.968 344.757 242.933C345.131 242.893 345.435 242.859 345.667 242.826C345.9 242.793 346.068 242.741 346.173 242.673C346.281 242.6 346.335 242.491 346.335 242.342V242.316C346.335 241.994 346.242 241.743 346.057 241.566C345.872 241.388 345.605 241.3 345.256 241.3C344.887 241.3 344.596 241.383 344.38 241.548C344.166 241.715 344.022 241.91 343.947 242.136L342.545 241.93C342.655 241.53 342.837 241.196 343.092 240.927C343.347 240.655 343.658 240.452 344.026 240.318C344.395 240.181 344.802 240.111 345.247 240.111C345.555 240.111 345.861 240.149 346.165 240.224C346.47 240.297 346.747 240.421 347 240.592C347.252 240.761 347.453 240.99 347.606 241.282C347.761 241.574 347.838 241.939 347.838 242.376V246.784H346.393V245.879H346.343C346.252 246.063 346.123 246.234 345.957 246.395C345.795 246.552 345.588 246.679 345.338 246.777C345.092 246.871 344.803 246.917 344.471 246.917ZM344.861 245.777C345.163 245.777 345.425 245.715 345.646 245.593C345.867 245.466 346.037 245.301 346.157 245.096C346.278 244.889 346.34 244.665 346.34 244.422V243.646C346.292 243.686 346.212 243.723 346.098 243.757C345.988 243.792 345.863 243.822 345.725 243.847C345.586 243.873 345.45 243.896 345.313 243.916C345.178 243.937 345.061 243.953 344.961 243.967C344.737 243.998 344.536 244.05 344.358 244.121C344.182 244.193 344.042 244.293 343.94 244.422C343.837 244.547 343.786 244.711 343.786 244.911C343.786 245.197 343.887 245.412 344.088 245.558C344.291 245.704 344.548 245.777 344.861 245.777Z" fill="white"/>
<path d="M351.938 239.334V238H358.723V239.334H356.095V246.783H354.566V239.334H351.938Z" fill="white"/>
<path d="M360.931 246.917C360.527 246.917 360.163 246.844 359.839 246.695C359.518 246.543 359.263 246.321 359.076 246.025C358.889 245.731 358.797 245.368 358.797 244.937C358.797 244.565 358.863 244.258 358.997 244.014C359.129 243.771 359.311 243.578 359.541 243.432C359.771 243.286 360.029 243.175 360.317 243.101C360.608 243.024 360.907 242.968 361.217 242.933C361.591 242.893 361.893 242.859 362.126 242.826C362.358 242.793 362.527 242.741 362.633 242.673C362.741 242.6 362.794 242.491 362.794 242.342V242.316C362.794 241.994 362.702 241.743 362.517 241.566C362.331 241.388 362.063 241.3 361.714 241.3C361.347 241.3 361.054 241.383 360.841 241.548C360.627 241.715 360.483 241.91 360.408 242.136L359.004 241.93C359.116 241.53 359.298 241.196 359.553 240.927C359.808 240.655 360.119 240.452 360.487 240.318C360.856 240.181 361.261 240.111 361.707 240.111C362.014 240.111 362.319 240.149 362.624 240.224C362.929 240.297 363.207 240.421 363.459 240.592C363.711 240.761 363.913 240.99 364.066 241.282C364.221 241.574 364.298 241.939 364.298 242.376V246.784H362.853V245.879H362.803C362.712 246.063 362.583 246.234 362.417 246.395C362.253 246.552 362.047 246.679 361.798 246.777C361.552 246.871 361.262 246.917 360.931 246.917ZM361.321 245.777C361.622 245.777 361.884 245.715 362.106 245.593C362.327 245.466 362.497 245.301 362.616 245.096C362.738 244.889 362.798 244.665 362.798 244.422V243.646C362.752 243.686 362.672 243.723 362.558 243.757C362.447 243.792 362.323 243.822 362.184 243.847C362.046 243.873 361.908 243.896 361.773 243.916C361.637 243.937 361.519 243.953 361.421 243.967C361.196 243.998 360.996 244.05 360.819 244.121C360.642 244.193 360.502 244.293 360.399 244.422C360.298 244.547 360.247 244.711 360.247 244.911C360.247 245.197 360.347 245.412 360.549 245.558C360.752 245.704 361.008 245.777 361.321 245.777Z" fill="white"/>
<path d="M370.851 241.939L369.48 242.093C369.441 241.95 369.374 241.815 369.277 241.69C369.182 241.564 369.056 241.463 368.895 241.386C368.735 241.308 368.537 241.269 368.305 241.269C367.992 241.269 367.73 241.34 367.516 241.48C367.306 241.62 367.202 241.801 367.205 242.025C367.202 242.216 367.27 242.372 367.409 242.492C367.55 242.612 367.782 242.711 368.106 242.788L369.194 243.028C369.797 243.162 370.246 243.375 370.54 243.667C370.836 243.958 370.985 244.341 370.987 244.812C370.985 245.226 370.867 245.593 370.635 245.91C370.405 246.224 370.085 246.471 369.676 246.648C369.266 246.824 368.795 246.914 368.264 246.914C367.484 246.914 366.855 246.744 366.379 246.407C365.902 246.068 365.619 245.594 365.527 244.987L366.994 244.843C367.06 245.14 367.201 245.364 367.416 245.515C367.632 245.666 367.914 245.743 368.26 245.743C368.617 245.743 368.904 245.666 369.119 245.515C369.337 245.364 369.447 245.177 369.447 244.954C369.447 244.765 369.376 244.609 369.235 244.486C369.097 244.364 368.881 244.27 368.587 244.204L367.5 243.967C366.887 243.836 366.435 243.614 366.142 243.303C365.849 242.988 365.704 242.591 365.706 242.11C365.704 241.704 365.81 241.353 366.026 241.055C366.245 240.756 366.547 240.523 366.935 240.36C367.325 240.195 367.775 240.111 368.285 240.111C369.032 240.111 369.62 240.277 370.05 240.604C370.481 240.934 370.749 241.379 370.851 241.939Z" fill="white"/>
<path d="M373.598 244.716L373.593 242.842H373.834L376.127 240.196H377.883L375.063 243.438H374.752L373.598 244.716ZM372.227 246.783V238H373.73V246.783H372.227ZM376.23 246.783L374.154 243.785L375.167 242.691L378.028 246.783H376.23Z" fill="white"/>
<path d="M701.522 225.02H516.951C513.261 225.02 510.27 228.109 510.27 231.92V253.483C510.27 257.294 513.261 260.383 516.951 260.383H701.522C705.212 260.383 708.203 257.294 708.203 253.483V231.92C708.203 228.109 705.212 225.02 701.522 225.02Z" fill="#001E30"/>
<path d="M579.145 246.783H577.5L580.494 238H582.396L585.393 246.783H583.747L581.478 239.801H581.411L579.145 246.783ZM579.199 243.34H583.681V244.618H579.199V243.34Z" fill="white"/>
<path d="M588.621 246.899C588.12 246.899 587.671 246.766 587.276 246.5C586.88 246.234 586.567 245.848 586.337 245.342C586.107 244.836 585.992 244.221 585.992 243.498C585.992 242.766 586.108 242.148 586.341 241.646C586.577 241.14 586.893 240.758 587.292 240.501C587.691 240.24 588.135 240.109 588.625 240.109C588.998 240.109 589.306 240.175 589.547 240.307C589.788 240.436 589.978 240.592 590.12 240.774C590.261 240.955 590.371 241.125 590.448 241.286H590.511V238H592.017V246.783H590.54V245.745H590.448C590.371 245.906 590.258 246.075 590.112 246.256C589.965 246.433 589.771 246.584 589.531 246.71C589.29 246.835 588.986 246.899 588.621 246.899ZM589.041 245.625C589.358 245.625 589.63 245.537 589.855 245.36C590.078 245.179 590.248 244.929 590.365 244.609C590.481 244.288 590.54 243.915 590.54 243.489C590.54 243.063 590.481 242.693 590.365 242.379C590.251 242.064 590.082 241.82 589.858 241.646C589.637 241.471 589.365 241.384 589.041 241.384C588.706 241.384 588.426 241.474 588.202 241.653C587.977 241.834 587.808 242.083 587.695 242.4C587.581 242.717 587.525 243.08 587.525 243.489C587.525 243.901 587.581 244.269 587.695 244.592C587.811 244.912 587.981 245.165 588.206 245.351C588.432 245.534 588.711 245.625 589.041 245.625Z" fill="white"/>
<path d="M595.984 246.899C595.483 246.899 595.035 246.766 594.639 246.5C594.243 246.234 593.93 245.848 593.7 245.342C593.47 244.836 593.355 244.221 593.355 243.498C593.355 242.766 593.472 242.148 593.704 241.646C593.94 241.14 594.257 240.758 594.655 240.501C595.054 240.24 595.498 240.109 595.988 240.109C596.362 240.109 596.669 240.175 596.91 240.307C597.152 240.436 597.342 240.592 597.483 240.774C597.624 240.955 597.734 241.125 597.812 241.286H597.874V238H599.382V246.783H597.903V245.745H597.812C597.734 245.906 597.622 246.075 597.475 246.256C597.328 246.433 597.134 246.584 596.894 246.71C596.653 246.835 596.349 246.899 595.984 246.899ZM596.404 245.625C596.722 245.625 596.993 245.537 597.218 245.36C597.442 245.179 597.612 244.929 597.728 244.609C597.844 244.288 597.903 243.915 597.903 243.489C597.903 243.063 597.844 242.693 597.728 242.379C597.615 242.064 597.445 241.82 597.222 241.646C597 241.471 596.728 241.384 596.404 241.384C596.069 241.384 595.789 241.474 595.565 241.653C595.34 241.834 595.172 242.083 595.058 242.4C594.945 242.717 594.888 243.08 594.888 243.489C594.888 243.901 594.945 244.269 595.058 244.592C595.174 244.912 595.345 245.165 595.569 245.351C595.797 245.534 596.074 245.625 596.404 245.625Z" fill="white"/>
<path d="M605.721 246.917C605.317 246.917 604.952 246.844 604.628 246.695C604.307 246.543 604.053 246.321 603.865 246.025C603.68 245.731 603.586 245.368 603.586 244.937C603.586 244.565 603.653 244.258 603.786 244.014C603.918 243.771 604.1 243.578 604.33 243.432C604.56 243.286 604.818 243.175 605.106 243.101C605.397 243.024 605.697 242.968 606.007 242.933C606.381 242.893 606.685 242.859 606.917 242.826C607.15 242.793 607.318 242.741 607.423 242.673C607.531 242.6 607.585 242.491 607.585 242.342V242.316C607.585 241.994 607.492 241.743 607.307 241.566C607.122 241.388 606.855 241.3 606.506 241.3C606.137 241.3 605.846 241.383 605.63 241.548C605.416 241.715 605.272 241.91 605.197 242.136L603.795 241.93C603.905 241.53 604.087 241.196 604.342 240.927C604.597 240.655 604.908 240.452 605.277 240.318C605.645 240.181 606.052 240.111 606.497 240.111C606.805 240.111 607.111 240.149 607.415 240.224C607.72 240.297 607.997 240.421 608.25 240.592C608.502 240.761 608.703 240.99 608.856 241.282C609.011 241.574 609.088 241.939 609.088 242.376V246.784H607.643V245.879H607.593C607.502 246.063 607.373 246.234 607.207 246.395C607.045 246.552 606.838 246.679 606.588 246.777C606.342 246.871 606.053 246.917 605.721 246.917ZM606.111 245.777C606.413 245.777 606.675 245.715 606.896 245.593C607.117 245.466 607.287 245.301 607.407 245.096C607.528 244.889 607.59 244.665 607.59 244.422V243.646C607.542 243.686 607.462 243.723 607.348 243.757C607.238 243.792 607.113 243.822 606.975 243.847C606.836 243.873 606.7 243.896 606.563 243.916C606.428 243.937 606.311 243.953 606.211 243.967C605.987 243.998 605.786 244.05 605.608 244.121C605.432 244.193 605.292 244.293 605.19 244.422C605.087 244.547 605.036 244.711 605.036 244.911C605.036 245.197 605.137 245.412 605.338 245.558C605.541 245.704 605.798 245.777 606.111 245.777Z" fill="white"/>
<path d="M613.188 239.334V238H619.972V239.334H617.345V246.783H615.816V239.334H613.188Z" fill="white"/>
<path d="M622.179 246.917C621.777 246.917 621.413 246.844 621.089 246.695C620.768 246.543 620.513 246.321 620.326 246.025C620.139 245.731 620.047 245.368 620.047 244.937C620.047 244.565 620.113 244.258 620.246 244.014C620.379 243.771 620.561 243.578 620.791 243.432C621.019 243.286 621.279 243.175 621.567 243.101C621.857 243.024 622.157 242.968 622.467 242.933C622.841 242.893 623.143 242.859 623.376 242.826C623.608 242.793 623.777 242.741 623.882 242.673C623.991 242.6 624.044 242.491 624.044 242.342V242.316C624.044 241.994 623.952 241.743 623.766 241.566C623.581 241.388 623.313 241.3 622.964 241.3C622.597 241.3 622.304 241.383 622.089 241.548C621.877 241.715 621.733 241.91 621.658 242.136L620.254 241.93C620.366 241.53 620.548 241.196 620.803 240.927C621.057 240.655 621.369 240.452 621.737 240.318C622.106 240.181 622.511 240.111 622.957 240.111C623.263 240.111 623.569 240.149 623.874 240.224C624.178 240.297 624.457 240.421 624.709 240.592C624.961 240.761 625.163 240.99 625.316 241.282C625.471 241.574 625.548 241.939 625.548 242.376V246.784H624.103V245.879H624.053C623.962 246.063 623.833 246.234 623.667 246.395C623.503 246.552 623.297 246.679 623.048 246.777C622.802 246.871 622.512 246.917 622.179 246.917ZM622.571 245.777C622.872 245.777 623.133 245.715 623.356 245.593C623.577 245.466 623.747 245.301 623.866 245.096C623.988 244.889 624.048 244.665 624.048 244.422V243.646C624.002 243.686 623.921 243.723 623.808 243.757C623.697 243.792 623.572 243.822 623.434 243.847C623.296 243.873 623.158 243.896 623.023 243.916C622.887 243.937 622.769 243.953 622.669 243.967C622.446 243.998 622.244 244.05 622.069 244.121C621.892 244.193 621.752 244.293 621.649 244.422C621.547 244.547 621.496 244.711 621.496 244.911C621.496 245.197 621.597 245.412 621.799 245.558C622.002 245.704 622.257 245.777 622.571 245.777Z" fill="white"/>
<path d="M632.101 241.939L630.731 242.093C630.692 241.95 630.624 241.815 630.527 241.69C630.432 241.564 630.306 241.463 630.145 241.386C629.985 241.308 629.787 241.269 629.555 241.269C629.242 241.269 628.98 241.34 628.766 241.48C628.556 241.62 628.452 241.801 628.455 242.025C628.452 242.216 628.52 242.372 628.659 242.492C628.8 242.612 629.032 242.711 629.356 242.788L630.444 243.028C631.047 243.162 631.496 243.375 631.79 243.667C632.086 243.958 632.235 244.341 632.237 244.812C632.235 245.226 632.117 245.593 631.885 245.91C631.655 246.224 631.335 246.471 630.926 246.648C630.516 246.824 630.045 246.914 629.514 246.914C628.734 246.914 628.105 246.744 627.629 246.407C627.152 246.068 626.869 245.594 626.777 244.987L628.244 244.843C628.31 245.14 628.451 245.364 628.666 245.515C628.882 245.666 629.164 245.743 629.51 245.743C629.867 245.743 630.154 245.666 630.369 245.515C630.587 245.364 630.697 245.177 630.697 244.954C630.697 244.765 630.626 244.609 630.486 244.486C630.347 244.364 630.131 244.27 629.837 244.204L628.75 243.967C628.137 243.836 627.685 243.614 627.392 243.303C627.099 242.988 626.954 242.591 626.956 242.11C626.954 241.704 627.06 241.353 627.276 241.055C627.495 240.756 627.797 240.523 628.185 240.36C628.575 240.195 629.025 240.111 629.535 240.111C630.282 240.111 630.87 240.277 631.3 240.604C631.731 240.934 631.999 241.379 632.101 241.939Z" fill="white"/>
<path d="M634.848 244.716L634.843 242.842H635.084L637.377 240.196H639.133L636.313 243.438H636.002L634.848 244.716ZM633.477 246.783V238H634.98V246.783H633.477ZM637.48 246.783L635.404 243.785L636.417 242.691L639.278 246.783H637.48Z" fill="white"/>
<path d="M963.128 225.02H778.556C774.866 225.02 771.875 228.109 771.875 231.92V253.483C771.875 257.294 774.866 260.383 778.556 260.383H963.128C966.818 260.383 969.809 257.294 969.809 253.483V231.92C969.809 228.109 966.818 225.02 963.128 225.02Z" fill="#001E30"/>
<path d="M841.644 246.783H840L842.994 238H844.896L847.893 246.783H846.247L843.978 239.801H843.911L841.644 246.783ZM841.699 243.34H846.181V244.618H841.699V243.34Z" fill="white"/>
<path d="M851.121 246.899C850.62 246.899 850.172 246.766 849.776 246.5C849.38 246.234 849.067 245.848 848.837 245.342C848.607 244.836 848.492 244.221 848.492 243.498C848.492 242.766 848.608 242.148 848.841 241.646C849.077 241.14 849.393 240.758 849.792 240.501C850.191 240.24 850.636 240.109 851.126 240.109C851.5 240.109 851.806 240.175 852.047 240.307C852.288 240.436 852.478 240.592 852.62 240.774C852.761 240.955 852.871 241.125 852.948 241.286H853.011V238H854.518V246.783H853.04V245.745H852.948C852.871 245.906 852.758 246.075 852.612 246.256C852.465 246.433 852.271 246.584 852.031 246.71C851.79 246.835 851.486 246.899 851.121 246.899ZM851.541 245.625C851.858 245.625 852.13 245.537 852.355 245.36C852.578 245.179 852.748 244.929 852.865 244.609C852.981 244.288 853.04 243.915 853.04 243.489C853.04 243.063 852.981 242.693 852.865 242.379C852.752 242.064 852.583 241.82 852.358 241.646C852.137 241.471 851.865 241.384 851.541 241.384C851.206 241.384 850.926 241.474 850.702 241.653C850.477 241.834 850.308 242.083 850.195 242.4C850.082 242.717 850.025 243.08 850.025 243.489C850.025 243.901 850.082 244.269 850.195 244.592C850.311 244.912 850.482 245.165 850.706 245.351C850.933 245.534 851.211 245.625 851.541 245.625Z" fill="white"/>
<path d="M858.484 246.899C857.983 246.899 857.535 246.766 857.139 246.5C856.743 246.234 856.43 245.848 856.2 245.342C855.97 244.836 855.855 244.221 855.855 243.498C855.855 242.766 855.972 242.148 856.204 241.646C856.44 241.14 856.757 240.758 857.155 240.501C857.554 240.24 857.999 240.109 858.489 240.109C858.862 240.109 859.169 240.175 859.41 240.307C859.652 240.436 859.842 240.592 859.983 240.774C860.124 240.955 860.234 241.125 860.312 241.286H860.374V238H861.882V246.783H860.403V245.745H860.312C860.234 245.906 860.122 246.075 859.975 246.256C859.828 246.433 859.634 246.584 859.394 246.71C859.153 246.835 858.85 246.899 858.484 246.899ZM858.904 245.625C859.222 245.625 859.493 245.537 859.718 245.36C859.942 245.179 860.112 244.929 860.228 244.609C860.344 244.288 860.403 243.915 860.403 243.489C860.403 243.063 860.344 242.693 860.228 242.379C860.115 242.064 859.947 241.82 859.722 241.646C859.5 241.471 859.228 241.384 858.904 241.384C858.569 241.384 858.289 241.474 858.065 241.653C857.84 241.834 857.672 242.083 857.558 242.4C857.445 242.717 857.388 243.08 857.388 243.489C857.388 243.901 857.445 244.269 857.558 244.592C857.674 244.912 857.845 245.165 858.069 245.351C858.297 245.534 858.574 245.625 858.904 245.625Z" fill="white"/>
<path d="M868.221 246.917C867.817 246.917 867.452 246.844 867.128 246.695C866.807 246.543 866.553 246.321 866.365 246.025C866.18 245.731 866.086 245.368 866.086 244.937C866.086 244.565 866.153 244.258 866.286 244.014C866.418 243.771 866.6 243.578 866.83 243.432C867.06 243.286 867.318 243.175 867.606 243.101C867.897 243.024 868.197 242.968 868.507 242.933C868.881 242.893 869.185 242.859 869.417 242.826C869.65 242.793 869.818 242.741 869.923 242.673C870.031 242.6 870.085 242.491 870.085 242.342V242.316C870.085 241.994 869.992 241.743 869.807 241.566C869.622 241.388 869.355 241.3 869.006 241.3C868.637 241.3 868.346 241.383 868.13 241.548C867.916 241.715 867.772 241.91 867.697 242.136L866.295 241.93C866.405 241.53 866.587 241.196 866.842 240.927C867.097 240.655 867.408 240.452 867.777 240.318C868.145 240.181 868.552 240.111 868.997 240.111C869.305 240.111 869.611 240.149 869.915 240.224C870.22 240.297 870.497 240.421 870.75 240.592C871.002 240.761 871.203 240.99 871.356 241.282C871.511 241.574 871.588 241.939 871.588 242.376V246.784H870.143V245.879H870.093C870.002 246.063 869.873 246.234 869.707 246.395C869.545 246.552 869.338 246.679 869.088 246.777C868.842 246.871 868.553 246.917 868.221 246.917ZM868.611 245.777C868.913 245.777 869.175 245.715 869.396 245.593C869.617 245.466 869.787 245.301 869.907 245.096C870.028 244.889 870.09 244.665 870.09 244.422V243.646C870.042 243.686 869.962 243.723 869.848 243.757C869.738 243.792 869.613 243.822 869.475 243.847C869.336 243.873 869.2 243.896 869.063 243.916C868.928 243.937 868.811 243.953 868.711 243.967C868.487 243.998 868.286 244.05 868.108 244.121C867.932 244.193 867.792 244.293 867.69 244.422C867.587 244.547 867.536 244.711 867.536 244.911C867.536 245.197 867.637 245.412 867.838 245.558C868.041 245.704 868.298 245.777 868.611 245.777Z" fill="white"/>
<path d="M875.688 239.334V238H882.472V239.334H879.845V246.783H878.316V239.334H875.688Z" fill="white"/>
<path d="M884.681 246.917C884.277 246.917 883.913 246.844 883.589 246.695C883.268 246.543 883.013 246.321 882.826 246.025C882.639 245.731 882.547 245.368 882.547 244.937C882.547 244.565 882.613 244.258 882.747 244.014C882.879 243.771 883.061 243.578 883.291 243.432C883.521 243.286 883.779 243.175 884.067 243.101C884.358 243.024 884.657 242.968 884.967 242.933C885.341 242.893 885.643 242.859 885.876 242.826C886.108 242.793 886.277 242.741 886.383 242.673C886.491 242.6 886.544 242.491 886.544 242.342V242.316C886.544 241.994 886.452 241.743 886.267 241.566C886.081 241.388 885.813 241.3 885.464 241.3C885.097 241.3 884.804 241.383 884.591 241.548C884.377 241.715 884.233 241.91 884.158 242.136L882.754 241.93C882.866 241.53 883.048 241.196 883.303 240.927C883.558 240.655 883.869 240.452 884.237 240.318C884.606 240.181 885.011 240.111 885.457 240.111C885.764 240.111 886.069 240.149 886.374 240.224C886.679 240.297 886.957 240.421 887.209 240.592C887.461 240.761 887.663 240.99 887.816 241.282C887.971 241.574 888.048 241.939 888.048 242.376V246.784H886.603V245.879H886.553C886.462 246.063 886.333 246.234 886.167 246.395C886.003 246.552 885.797 246.679 885.548 246.777C885.302 246.871 885.012 246.917 884.681 246.917ZM885.071 245.777C885.372 245.777 885.634 245.715 885.856 245.593C886.077 245.466 886.247 245.301 886.366 245.096C886.488 244.889 886.548 244.665 886.548 244.422V243.646C886.502 243.686 886.422 243.723 886.308 243.757C886.197 243.792 886.072 243.822 885.934 243.847C885.796 243.873 885.658 243.896 885.523 243.916C885.387 243.937 885.269 243.953 885.171 243.967C884.946 243.998 884.746 244.05 884.569 244.121C884.392 244.193 884.252 244.293 884.149 244.422C884.048 244.547 883.997 244.711 883.997 244.911C883.997 245.197 884.097 245.412 884.299 245.558C884.502 245.704 884.758 245.777 885.071 245.777Z" fill="white"/>
<path d="M894.601 241.939L893.231 242.093C893.192 241.95 893.124 241.815 893.027 241.69C892.934 241.564 892.806 241.463 892.645 241.386C892.485 241.308 892.289 241.269 892.056 241.269C891.742 241.269 891.48 241.34 891.266 241.48C891.056 241.62 890.952 241.801 890.955 242.025C890.952 242.216 891.02 242.372 891.159 242.492C891.3 242.612 891.532 242.711 891.856 242.788L892.944 243.028C893.547 243.162 893.996 243.375 894.29 243.667C894.586 243.958 894.735 244.341 894.739 244.812C894.735 245.226 894.617 245.593 894.385 245.91C894.155 246.224 893.836 246.471 893.426 246.648C893.016 246.824 892.545 246.914 892.014 246.914C891.234 246.914 890.605 246.744 890.129 246.407C889.652 246.068 889.369 245.594 889.277 244.987L890.744 244.843C890.81 245.14 890.951 245.364 891.167 245.515C891.382 245.666 891.664 245.743 892.01 245.743C892.367 245.743 892.654 245.666 892.87 245.515C893.089 245.364 893.197 245.177 893.197 244.954C893.197 244.765 893.127 244.609 892.986 244.486C892.847 244.364 892.631 244.27 892.337 244.204L891.25 243.967C890.639 243.836 890.185 243.614 889.892 243.303C889.599 242.988 889.454 242.591 889.456 242.11C889.454 241.704 889.56 241.353 889.776 241.055C889.995 240.756 890.297 240.523 890.685 240.36C891.075 240.195 891.525 240.111 892.035 240.111C892.782 240.111 893.37 240.277 893.8 240.604C894.231 240.934 894.499 241.379 894.601 241.939Z" fill="white"/>
<path d="M897.348 244.716L897.343 242.842H897.584L899.877 240.196H901.633L898.813 243.438H898.502L897.348 244.716ZM895.977 246.783V238H897.48V246.783H895.977ZM899.98 246.783L897.904 243.785L898.917 242.691L901.778 246.783H899.98Z" fill="white"/>
<g opacity="0.7">
<path d="M258.824 307.098C258.824 304.456 260.898 302.314 263.457 302.314H370.393C372.952 302.314 375.024 304.456 375.024 307.098C375.024 309.738 372.952 311.879 370.393 311.879H263.457C260.898 311.879 258.824 309.738 258.824 307.098Z" fill="#D9DBE8"/>
<path opacity="0.65" d="M258.824 325.361C258.824 322.72 260.898 320.578 263.457 320.578H429.337C431.893 320.578 433.967 322.72 433.967 325.361C433.967 328.001 431.893 330.143 429.337 330.143H263.457C260.898 330.143 258.824 328.001 258.824 325.361Z" fill="#EFF0F6"/>
<path opacity="0.65" d="M258.824 343.622C258.824 340.982 260.898 338.84 263.457 338.84H303.873C306.432 338.84 308.505 340.982 308.505 343.622C308.505 346.263 306.432 348.405 303.873 348.405H263.457C260.898 348.405 258.824 346.263 258.824 343.622Z" fill="#EFF0F6"/>
<path d="M410.242 367.778C410.242 366.119 411.543 364.773 413.151 364.773H427.691C429.297 364.773 430.6 366.119 430.6 367.778V382.796C430.6 384.455 429.297 385.8 427.691 385.8H413.151C411.543 385.8 410.242 384.455 410.242 382.796V367.778Z" fill="#001E30"/>
<path fill-rule="evenodd" clip-rule="evenodd" d="M425.103 370.758C425.648 371.23 425.718 372.068 425.261 372.63L419.858 379.274C419.613 379.574 419.253 379.747 418.872 379.747C418.492 379.747 418.132 379.574 417.887 379.274L415.571 376.426C415.114 375.865 415.184 375.027 415.728 374.553C416.273 374.082 417.086 374.154 417.542 374.717L418.872 376.354L423.291 370.922C423.747 370.36 424.559 370.286 425.103 370.758Z" fill="white"/>
<path fill-rule="evenodd" clip-rule="evenodd" d="M440.704 288.4H250.407C247.615 288.4 245.354 290.737 245.354 293.618V394.497C245.354 397.378 247.615 399.714 250.407 399.714H440.704C443.494 399.714 445.757 397.378 445.757 394.497V293.618C445.757 290.737 443.494 288.4 440.704 288.4ZM250.407 287.531C247.15 287.531 244.512 290.258 244.512 293.618V394.497C244.512 397.859 247.15 400.584 250.407 400.584H440.704C443.959 400.584 446.598 397.859 446.598 394.497V293.618C446.598 290.258 443.959 287.531 440.704 287.531H250.407Z" fill="#D9D9D9"/>
<path fill-rule="evenodd" clip-rule="evenodd" d="M333.31 373.882C333.637 373.542 334.171 373.542 334.5 373.882L337.272 376.745L340.045 373.882C340.375 373.542 340.907 373.542 341.237 373.882C341.565 374.221 341.565 374.772 341.237 375.111L337.867 378.59C337.54 378.929 337.005 378.929 336.678 378.59L333.31 375.111C332.98 374.772 332.98 374.221 333.31 373.882Z" fill="#D9DBE8"/>
<path d="M274.961 375.799C274.961 373.157 277.033 371.016 279.592 371.016H322.536C325.093 371.016 327.167 373.157 327.167 375.799C327.167 378.44 325.093 380.582 322.536 380.582H279.592C277.033 380.582 274.961 378.44 274.961 375.799Z" fill="#E4E6EF"/>
<path d="M258.355 375.446C258.355 372.683 260.524 370.443 263.199 370.443H264.584C267.259 370.443 269.428 372.683 269.428 375.446C269.428 378.21 267.259 380.45 264.584 380.45H263.199C260.524 380.45 258.355 378.21 258.355 375.446Z" fill="#E4E6EF"/>
</g>
<g opacity="0.7">
<path d="M524.586 307.098C524.586 304.456 526.66 302.314 529.217 302.314H636.155C638.712 302.314 640.786 304.456 640.786 307.098C640.786 309.738 638.712 311.879 636.155 311.879H529.217C526.66 311.879 524.586 309.738 524.586 307.098Z" fill="#D9DBE8"/>
<path opacity="0.65" d="M524.586 325.361C524.586 322.72 526.66 320.578 529.217 320.578H695.097C697.653 320.578 699.727 322.72 699.727 325.361C699.727 328.001 697.653 330.143 695.097 330.143H529.217C526.66 330.143 524.586 328.001 524.586 325.361Z" fill="#EEEFF5"/>
<path opacity="0.65" d="M524.586 343.622C524.586 340.982 526.66 338.84 529.217 338.84H569.635C572.192 338.84 574.266 340.982 574.266 343.622C574.266 346.263 572.192 348.405 569.635 348.405H529.217C526.66 348.405 524.586 346.263 524.586 343.622Z" fill="#EEEFF5"/>
<path d="M676 367.778C676 366.119 677.3 364.773 678.907 364.773H693.449C695.054 364.773 696.356 366.119 696.356 367.778V382.796C696.356 384.455 695.054 385.8 693.449 385.8H678.907C677.3 385.8 676 384.455 676 382.796V367.778Z" fill="#001E30"/>
<path fill-rule="evenodd" clip-rule="evenodd" d="M690.861 370.758C691.405 371.23 691.476 372.068 691.019 372.63L685.615 379.274C685.37 379.574 685.01 379.747 684.63 379.747C684.25 379.747 683.889 379.574 683.644 379.274L681.329 376.426C680.871 375.865 680.943 375.027 681.486 374.553C682.03 374.082 682.843 374.154 683.299 374.717L684.63 376.354L689.048 370.922C689.505 370.36 690.318 370.286 690.861 370.758Z" fill="white"/>
<path fill-rule="evenodd" clip-rule="evenodd" d="M706.462 288.4H516.165C513.375 288.4 511.112 290.737 511.112 293.618V394.497C511.112 397.378 513.375 399.714 516.165 399.714H706.462C709.253 399.714 711.515 397.378 711.515 394.497V293.618C711.515 290.737 709.253 288.4 706.462 288.4ZM516.165 287.531C512.91 287.531 510.27 290.258 510.27 293.618V394.497C510.27 397.859 512.91 400.584 516.165 400.584H706.462C709.718 400.584 712.356 397.859 712.356 394.497V293.618C712.356 290.258 709.718 287.531 706.462 287.531H516.165Z" fill="#D9D9D9"/>
<path fill-rule="evenodd" clip-rule="evenodd" d="M599.067 373.882C599.396 373.542 599.928 373.542 600.258 373.882L603.031 376.745L605.803 373.882C606.132 373.542 606.664 373.542 606.994 373.882C607.322 374.221 607.322 374.772 606.994 375.111L603.626 378.59C603.297 378.929 602.763 378.929 602.434 378.59L599.067 375.111C598.738 374.772 598.738 374.221 599.067 373.882Z" fill="#D9DBE8"/>
<path d="M540.719 375.799C540.719 373.157 542.793 371.016 545.35 371.016H588.294C590.851 371.016 592.925 373.157 592.925 375.799C592.925 378.44 590.851 380.582 588.294 380.582H545.35C542.793 380.582 540.719 378.44 540.719 375.799Z" fill="#E4E6EF"/>
<path d="M524.113 375.446C524.113 372.683 526.282 370.443 528.958 370.443H530.342C533.018 370.443 535.187 372.683 535.187 375.446C535.187 378.21 533.018 380.45 530.342 380.45H528.958C526.282 380.45 524.113 378.21 524.113 375.446Z" fill="#E4E6EF"/>
</g>
<path fill-rule="evenodd" clip-rule="evenodd" d="M777.77 400.584C776.97 400.584 776.209 400.419 775.514 400.122C775.384 400.066 775.256 400.006 775.13 399.941C775.004 399.875 774.881 399.805 774.76 399.732C774.955 399.327 775.425 399.142 775.836 399.319C776.43 399.573 777.083 399.714 777.77 399.714H780.569C781.034 399.714 781.41 400.104 781.41 400.584H777.77ZM792.604 400.584C792.604 400.104 792.227 399.714 791.762 399.714H786.165C785.699 399.714 785.322 400.104 785.322 400.584H792.604ZM803.798 400.584C803.798 400.104 803.421 399.714 802.956 399.714H797.357C796.895 399.714 796.516 400.104 796.516 400.584H803.798ZM814.993 400.584C814.993 400.104 814.614 399.714 814.149 399.714H808.554C808.088 399.714 807.71 400.104 807.71 400.584H814.993ZM826.186 400.584C826.186 400.104 825.81 399.714 825.344 399.714H819.746C819.281 399.714 818.905 400.104 818.905 400.584H826.186ZM837.38 400.584C837.38 400.104 837.002 399.714 836.537 399.714H830.94C830.475 399.714 830.099 400.104 830.099 400.584H837.38ZM848.574 400.584C848.574 400.104 848.196 399.714 847.731 399.714H842.134C841.669 399.714 841.292 400.104 841.292 400.584H848.574ZM859.769 400.584C859.769 400.104 859.39 399.714 858.925 399.714H853.329C852.864 399.714 852.486 400.104 852.486 400.584H859.769ZM870.963 400.584C870.963 400.104 870.585 399.714 870.12 399.714H864.522C864.057 399.714 863.681 400.104 863.681 400.584H870.963ZM882.156 400.584C882.156 400.104 881.779 399.714 881.314 399.714H875.716C875.251 399.714 874.875 400.104 874.875 400.584H882.156ZM893.349 400.584C893.349 400.104 892.972 399.714 892.507 399.714H886.91C886.446 399.714 886.069 400.104 886.069 400.584H893.349ZM904.545 400.584C904.545 400.104 904.166 399.714 903.701 399.714H898.105C897.64 399.714 897.262 400.104 897.262 400.584H904.545ZM915.738 400.584C915.738 400.104 915.361 399.714 914.896 399.714H909.299C908.834 399.714 908.457 400.104 908.457 400.584H915.738ZM926.931 400.584C926.931 400.104 926.555 399.714 926.09 399.714H920.492C920.027 399.714 919.651 400.104 919.651 400.584H926.931ZM938.125 400.584C938.125 400.104 937.749 399.714 937.284 399.714H931.687C931.222 399.714 930.845 400.104 930.845 400.584H938.125ZM949.32 400.584C949.32 400.104 948.942 399.714 948.477 399.714H942.881C942.416 399.714 942.039 400.104 942.039 400.584H949.32ZM960.514 400.584C960.514 400.104 960.137 399.714 959.672 399.714H954.075C953.61 399.714 953.234 400.104 953.234 400.584H960.514ZM971.076 399.732C970.88 399.327 970.412 399.142 970.001 399.319C969.407 399.573 968.754 399.714 968.067 399.714H965.269C964.804 399.714 964.427 400.104 964.427 400.584H968.067C968.866 400.584 969.629 400.419 970.324 400.122C970.454 400.066 970.581 400.006 970.707 399.941C970.832 399.875 970.956 399.805 971.076 399.732ZM973.961 390.824C973.496 390.824 973.12 391.214 973.12 391.694V394.497C973.12 395.206 972.983 395.878 972.736 396.494C972.566 396.918 972.746 397.402 973.138 397.604C973.209 397.48 973.276 397.353 973.34 397.222C973.402 397.093 973.46 396.961 973.514 396.827C973.804 396.109 973.961 395.322 973.961 394.497V390.824ZM973.961 379.616C973.496 379.616 973.12 380.006 973.12 380.486V386.089C973.12 386.569 973.496 386.96 973.961 386.96V379.616ZM973.961 368.408C973.496 368.408 973.12 368.796 973.12 369.276V374.882C973.12 375.362 973.496 375.751 973.961 375.751V368.408ZM973.961 357.198C973.496 357.198 973.12 357.589 973.12 358.069V363.672C973.12 364.154 973.496 364.542 973.961 364.542V357.198ZM973.961 345.991C973.496 345.991 973.12 346.379 973.12 346.86V352.464C973.12 352.944 973.496 353.334 973.961 353.334V345.991ZM973.961 334.781C973.496 334.781 973.12 335.171 973.12 335.651V341.254C973.12 341.734 973.496 342.126 973.961 342.126V334.781ZM973.961 323.573C973.496 323.573 973.12 323.962 973.12 324.442V330.047C973.12 330.527 973.496 330.916 973.961 330.916V323.573ZM973.961 312.363C973.496 312.363 973.12 312.754 973.12 313.235V318.838C973.12 319.318 973.496 319.708 973.961 319.708V312.363ZM973.961 301.156C973.496 301.156 973.12 301.545 973.12 302.025V307.629C973.12 308.11 973.496 308.499 973.961 308.499V301.156ZM973.138 290.512C972.746 290.714 972.566 291.198 972.736 291.621C972.983 292.236 973.12 292.909 973.12 293.618V296.421C973.12 296.9 973.496 297.291 973.961 297.291V293.618C973.961 292.793 973.804 292.006 973.514 291.288C973.46 291.154 973.402 291.022 973.34 290.893C973.276 290.764 973.209 290.636 973.138 290.512ZM964.427 287.531C964.427 288.011 964.804 288.4 965.269 288.4H968.067C968.754 288.4 969.407 288.542 970.001 288.796C970.412 288.972 970.88 288.787 971.076 288.383C970.956 288.308 970.832 288.239 970.707 288.174C970.581 288.108 970.454 288.049 970.324 287.993C969.629 287.695 968.866 287.531 968.067 287.531H964.427ZM953.234 287.531C953.234 288.011 953.61 288.4 954.075 288.4H959.672C960.137 288.4 960.514 288.011 960.514 287.531H953.234ZM942.039 287.531C942.039 288.011 942.416 288.4 942.881 288.4H948.477C948.942 288.4 949.32 288.011 949.32 287.531H942.039ZM930.845 287.531C930.845 288.011 931.223 288.4 931.686 288.4H937.284C937.749 288.4 938.125 288.011 938.125 287.531H930.845ZM919.651 287.531C919.651 288.011 920.027 288.4 920.492 288.4H926.09C926.555 288.4 926.931 288.011 926.931 287.531H919.651ZM908.457 287.531C908.457 288.011 908.834 288.4 909.299 288.4H914.896C915.361 288.4 915.738 288.011 915.738 287.531H908.457ZM897.262 287.531C897.262 288.011 897.64 288.4 898.105 288.4H903.701C904.166 288.4 904.545 288.011 904.545 287.531H897.262ZM886.069 287.531C886.069 288.011 886.446 288.4 886.91 288.4H892.507C892.972 288.4 893.349 288.011 893.349 287.531H886.069ZM874.875 287.531C874.875 288.011 875.251 288.4 875.716 288.4H881.314C881.779 288.4 882.156 288.011 882.156 287.531H874.875ZM863.681 287.531C863.681 288.011 864.057 288.4 864.522 288.4H870.12C870.585 288.4 870.963 288.011 870.963 287.531H863.681ZM852.486 287.531C852.486 288.011 852.864 288.4 853.329 288.4H858.925C859.39 288.4 859.769 288.011 859.769 287.531H852.486ZM841.292 287.531C841.292 288.011 841.67 288.4 842.134 288.4H847.731C848.196 288.4 848.574 288.011 848.574 287.531H841.292ZM830.099 287.531C830.099 288.011 830.475 288.4 830.94 288.4H836.537C837.002 288.4 837.38 288.011 837.38 287.531H830.099ZM818.905 287.531C818.905 288.011 819.281 288.4 819.746 288.4H825.344C825.81 288.4 826.186 288.011 826.186 287.531H818.905ZM807.71 287.531C807.71 288.011 808.088 288.4 808.554 288.4H814.149C814.614 288.4 814.993 288.011 814.993 287.531H807.71ZM796.516 287.531C796.516 288.011 796.892 288.4 797.357 288.4H802.956C803.421 288.4 803.798 288.011 803.798 287.531H796.516ZM785.322 287.531C785.322 288.011 785.699 288.4 786.165 288.4H791.762C792.227 288.4 792.604 288.011 792.604 287.531H785.322ZM781.41 287.531C781.41 288.011 781.034 288.4 780.569 288.4H777.77C777.083 288.4 776.43 288.542 775.836 288.796C775.425 288.972 774.955 288.787 774.76 288.383C774.881 288.308 775.004 288.239 775.13 288.174C775.256 288.108 775.384 288.049 775.514 287.993C776.209 287.695 776.97 287.531 777.77 287.531H781.41ZM771.875 297.291C772.34 297.291 772.718 296.901 772.718 296.421V293.618C772.718 292.909 772.852 292.236 773.1 291.621C773.271 291.198 773.091 290.714 772.699 290.512C772.627 290.636 772.561 290.764 772.497 290.893C772.435 291.022 772.376 291.154 772.322 291.288C772.034 292.006 771.875 292.793 771.875 293.618V297.291ZM771.875 308.499C772.34 308.499 772.718 308.11 772.718 307.629V302.025C772.718 301.545 772.34 301.156 771.875 301.156V308.499ZM771.875 319.708C772.34 319.708 772.718 319.318 772.718 318.838V313.235C772.718 312.754 772.34 312.363 771.875 312.363V319.708ZM771.875 330.916C772.34 330.916 772.718 330.527 772.718 330.047V324.442C772.718 323.962 772.34 323.573 771.875 323.573V330.916ZM771.875 342.126C772.34 342.126 772.718 341.734 772.718 341.254V335.651C772.718 335.171 772.34 334.781 771.875 334.781V342.126ZM771.875 353.334C772.34 353.334 772.718 352.944 772.718 352.464V346.86C772.718 346.379 772.34 345.991 771.875 345.991V353.334ZM771.875 364.542C772.34 364.542 772.718 364.154 772.718 363.672V358.069C772.718 357.589 772.34 357.198 771.875 357.198V364.542ZM771.875 375.751C772.34 375.751 772.718 375.362 772.718 374.882V369.276C772.718 368.796 772.34 368.408 771.875 368.408V375.751ZM771.875 386.96C772.34 386.96 772.718 386.569 772.718 386.089V380.486C772.718 380.006 772.34 379.616 771.875 379.616V386.96ZM772.699 397.604C773.091 397.402 773.271 396.918 773.1 396.494C772.852 395.878 772.718 395.206 772.718 394.497V391.694C772.718 391.214 772.34 390.824 771.875 390.824V394.497C771.875 395.322 772.034 396.109 772.322 396.827C772.376 396.961 772.435 397.093 772.497 397.222C772.561 397.353 772.627 397.48 772.699 397.604Z" fill="#5EC169"/>
<path fill-rule="evenodd" clip-rule="evenodd" d="M860.673 519.693C861.001 519.355 861.533 519.355 861.863 519.693L864.636 522.557L867.408 519.693C867.738 519.355 868.271 519.355 868.6 519.693C868.928 520.034 868.928 520.584 868.6 520.922L865.231 524.401C864.903 524.741 864.368 524.741 864.041 524.401L860.673 520.922C860.343 520.584 860.343 520.034 860.673 519.693Z" fill="#D9DBE8"/>
<path d="M786.188 452.914C786.188 450.273 788.261 448.131 790.82 448.131H897.756C900.315 448.131 902.388 450.273 902.388 452.914C902.388 455.554 900.315 457.696 897.756 457.696H790.82C788.261 457.696 786.188 455.554 786.188 452.914Z" fill="#D9DBE8"/>
<path d="M786.188 471.174C786.188 468.532 788.261 466.391 790.82 466.391H956.7C959.256 466.391 961.33 468.532 961.33 471.174C961.33 473.815 959.256 475.956 956.7 475.956H790.82C788.261 475.956 786.188 473.815 786.188 471.174Z" fill="#EFF0F6"/>
<path d="M786.188 489.436C786.188 486.796 788.261 484.654 790.82 484.654H831.236C833.795 484.654 835.869 486.796 835.869 489.436C835.869 492.079 833.795 494.219 831.236 494.219H790.82C788.261 494.219 786.188 492.079 786.188 489.436Z" fill="#EFF0F6"/>
<path d="M802.324 521.613C802.324 518.972 804.397 516.83 806.955 516.83H849.899C852.457 516.83 854.53 518.972 854.53 521.613C854.53 524.255 852.457 526.396 849.899 526.396H806.955C804.397 526.396 802.324 524.255 802.324 521.613Z" fill="#E4E6EF"/>
<path d="M785.719 521.262C785.719 518.498 787.887 516.258 790.562 516.258H791.948C794.623 516.258 796.791 518.498 796.791 521.262C796.791 524.024 794.623 526.264 791.948 526.264H790.562C787.887 526.264 785.719 524.024 785.719 521.262Z" fill="#E4E6EF"/>
<path d="M937.609 513.594C937.609 511.935 938.911 510.59 940.518 510.59H955.058C956.664 510.59 957.967 511.935 957.967 513.594V528.612C957.967 530.271 956.664 531.616 955.058 531.616H940.518C938.911 531.616 937.609 530.271 937.609 528.612V513.594Z" fill="#E4E4E4"/>
<path fill-rule="evenodd" clip-rule="evenodd" d="M968.067 434.213H777.77C774.979 434.213 772.718 436.549 772.718 439.431V540.309C772.718 543.191 774.979 545.528 777.77 545.528H968.067C970.857 545.528 973.12 543.191 973.12 540.309V439.431C973.12 436.549 970.857 434.213 968.067 434.213ZM777.77 433.344C774.514 433.344 771.875 436.07 771.875 439.431V540.309C771.875 543.671 774.514 546.396 777.77 546.396H968.067C971.322 546.396 973.961 543.671 973.961 540.309V439.431C973.961 436.07 971.322 433.344 968.067 433.344H777.77Z" fill="#C8C8C8"/>
<g opacity="0.43">
<path fill-rule="evenodd" clip-rule="evenodd" d="M860.673 373.882C861.001 373.542 861.535 373.542 861.863 373.882L864.636 376.745L867.408 373.882C867.738 373.542 868.271 373.542 868.6 373.882C868.928 374.221 868.928 374.772 868.6 375.111L865.231 378.59C864.903 378.929 864.368 378.929 864.041 378.59L860.673 375.111C860.343 374.772 860.343 374.221 860.673 373.882Z" fill="#D9DBE8"/>
<path d="M786.188 307.098C786.188 304.456 788.261 302.314 790.82 302.314H897.756C900.315 302.314 902.388 304.456 902.388 307.098C902.388 309.738 900.315 311.879 897.756 311.879H790.82C788.261 311.879 786.188 309.738 786.188 307.098Z" fill="#D9DBE8"/>
<path d="M786.188 325.361C786.188 322.72 788.261 320.578 790.82 320.578H956.7C959.256 320.578 961.33 322.72 961.33 325.361C961.33 328.001 959.256 330.143 956.7 330.143H790.82C788.261 330.143 786.188 328.001 786.188 325.361Z" fill="#EFF0F6"/>
<path d="M786.188 343.622C786.188 340.982 788.261 338.84 790.82 338.84H831.236C833.795 338.84 835.869 340.982 835.869 343.622C835.869 346.263 833.795 348.405 831.236 348.405H790.82C788.261 348.405 786.188 346.263 786.188 343.622Z" fill="#EFF0F6"/>
<path d="M802.324 375.799C802.324 373.157 804.397 371.016 806.955 371.016H849.899C852.457 371.016 854.53 373.157 854.53 375.799C854.53 378.44 852.457 380.582 849.899 380.582H806.955C804.397 380.582 802.324 378.44 802.324 375.799Z" fill="#E4E6EF"/>
<path d="M785.719 375.446C785.719 372.683 787.887 370.443 790.562 370.443H791.948C794.623 370.443 796.791 372.683 796.791 375.446C796.791 378.21 794.623 380.45 791.948 380.45H790.562C787.887 380.45 785.719 378.21 785.719 375.446Z" fill="#E4E6EF"/>
<path d="M937.609 367.778C937.609 366.119 938.911 364.773 940.518 364.773H955.058C956.664 364.773 957.967 366.119 957.967 367.778V382.796C957.967 384.455 956.664 385.8 955.058 385.8H940.518C938.911 385.8 937.609 384.455 937.609 382.796V367.778Z" fill="#E4E4E4"/>
<path fill-rule="evenodd" clip-rule="evenodd" d="M968.067 288.4H777.77C774.979 288.4 772.718 290.737 772.718 293.618V394.497C772.718 397.378 774.979 399.714 777.77 399.714H968.067C970.857 399.714 973.12 397.378 973.12 394.497V293.618C973.12 290.737 970.857 288.4 968.067 288.4ZM777.77 287.531C774.514 287.531 771.875 290.258 771.875 293.618V394.497C771.875 397.859 774.514 400.584 777.77 400.584H968.067C971.322 400.584 973.961 397.859 973.961 394.497V293.618C973.961 290.258 971.322 287.531 968.067 287.531H777.77Z" fill="#C8C8C8"/>
</g>
<g opacity="0.7">
<path d="M258.824 452.91C258.824 450.269 260.898 448.127 263.457 448.127H370.393C372.952 448.127 375.024 450.269 375.024 452.91C375.024 455.55 372.952 457.692 370.393 457.692H263.457C260.898 457.692 258.824 455.55 258.824 452.91Z" fill="#D9DBE8"/>
<path opacity="0.65" d="M258.824 471.174C258.824 468.532 260.898 466.391 263.457 466.391H429.337C431.893 466.391 433.967 468.532 433.967 471.174C433.967 473.815 431.893 475.956 429.337 475.956H263.457C260.898 475.956 258.824 473.815 258.824 471.174Z" fill="#EFF0F6"/>
<path opacity="0.65" d="M258.824 489.434C258.824 486.794 260.898 484.652 263.457 484.652H303.873C306.432 484.652 308.505 486.794 308.505 489.434C308.505 492.077 306.432 494.217 303.873 494.217H263.457C260.898 494.217 258.824 492.077 258.824 489.434Z" fill="#EFF0F6"/>
<path d="M410.242 513.592C410.242 511.933 411.543 510.588 413.151 510.588H427.691C429.297 510.588 430.6 511.933 430.6 513.592V528.61C430.6 530.269 429.297 531.614 427.691 531.614H413.151C411.543 531.614 410.242 530.269 410.242 528.61V513.592Z" fill="#001E30"/>
<path fill-rule="evenodd" clip-rule="evenodd" d="M425.103 516.573C425.648 517.044 425.718 517.882 425.261 518.444L419.858 525.089C419.613 525.389 419.253 525.562 418.872 525.562C418.492 525.562 418.132 525.389 417.887 525.089L415.571 522.241C415.114 521.679 415.184 520.841 415.728 520.369C416.273 519.896 417.086 519.97 417.542 520.531L418.872 522.168L423.291 516.736C423.747 516.174 424.559 516.101 425.103 516.573Z" fill="white"/>
<path fill-rule="evenodd" clip-rule="evenodd" d="M440.704 434.213H250.407C247.615 434.213 245.354 436.549 245.354 439.431V540.309C245.354 543.191 247.615 545.528 250.407 545.528H440.704C443.494 545.528 445.757 543.191 445.757 540.309V439.431C445.757 436.549 443.494 434.213 440.704 434.213ZM250.407 433.344C247.15 433.344 244.512 436.07 244.512 439.431V540.309C244.512 543.671 247.15 546.396 250.407 546.396H440.704C443.959 546.396 446.598 543.671 446.598 540.309V439.431C446.598 436.07 443.959 433.344 440.704 433.344H250.407Z" fill="#D9D9D9"/>
<path fill-rule="evenodd" clip-rule="evenodd" d="M333.31 519.693C333.637 519.355 334.171 519.355 334.5 519.693L337.272 522.557L340.045 519.693C340.375 519.355 340.907 519.355 341.237 519.693C341.565 520.034 341.565 520.584 341.237 520.922L337.867 524.401C337.54 524.741 337.005 524.741 336.678 524.401L333.31 520.922C332.98 520.584 332.98 520.034 333.31 519.693Z" fill="#D9DBE8"/>
<path d="M274.961 521.611C274.961 518.97 277.033 516.828 279.592 516.828H322.536C325.093 516.828 327.167 518.97 327.167 521.611C327.167 524.253 325.093 526.394 322.536 526.394H279.592C277.033 526.394 274.961 524.253 274.961 521.611Z" fill="#E4E6EF"/>
<path d="M258.355 521.26C258.355 518.496 260.524 516.256 263.199 516.256H264.584C267.259 516.256 269.428 518.496 269.428 521.26C269.428 524.022 267.259 526.262 264.584 526.262H263.199C260.524 526.262 258.355 524.022 258.355 521.26Z" fill="#E4E6EF"/>
</g>
<g opacity="0.7">
<path d="M524.586 452.91C524.586 450.269 526.66 448.127 529.217 448.127H636.155C638.712 448.127 640.786 450.269 640.786 452.91C640.786 455.55 638.712 457.692 636.155 457.692H529.217C526.66 457.692 524.586 455.55 524.586 452.91Z" fill="#D9DBE8"/>
<path opacity="0.65" d="M524.586 471.174C524.586 468.532 526.66 466.391 529.217 466.391H695.097C697.653 466.391 699.727 468.532 699.727 471.174C699.727 473.815 697.653 475.956 695.097 475.956H529.217C526.66 475.956 524.586 473.815 524.586 471.174Z" fill="#EFF0F6"/>
<path opacity="0.65" d="M524.586 489.434C524.586 486.794 526.66 484.652 529.217 484.652H569.635C572.192 484.652 574.266 486.794 574.266 489.434C574.266 492.077 572.192 494.217 569.635 494.217H529.217C526.66 494.217 524.586 492.077 524.586 489.434Z" fill="#EFF0F6"/>
<path d="M676 513.592C676 511.933 677.3 510.588 678.907 510.588H693.449C695.054 510.588 696.356 511.933 696.356 513.592V528.61C696.356 530.269 695.054 531.614 693.449 531.614H678.907C677.3 531.614 676 530.269 676 528.61V513.592Z" fill="#001E30"/>
<path fill-rule="evenodd" clip-rule="evenodd" d="M690.861 516.573C691.405 517.044 691.476 517.882 691.019 518.444L685.615 525.089C685.37 525.389 685.01 525.562 684.63 525.562C684.25 525.562 683.889 525.389 683.644 525.089L681.329 522.241C680.871 521.679 680.943 520.841 681.486 520.369C682.03 519.896 682.843 519.97 683.299 520.531L684.63 522.168L689.048 516.736C689.505 516.174 690.318 516.101 690.861 516.573Z" fill="white"/>
<path fill-rule="evenodd" clip-rule="evenodd" d="M706.462 434.213H516.165C513.375 434.213 511.112 436.549 511.112 439.431V540.309C511.112 543.191 513.375 545.528 516.165 545.528H706.462C709.253 545.528 711.515 543.191 711.515 540.309V439.431C711.515 436.549 709.253 434.213 706.462 434.213ZM516.165 433.344C512.91 433.344 510.27 436.07 510.27 439.431V540.309C510.27 543.671 512.91 546.396 516.165 546.396H706.462C709.718 546.396 712.356 543.671 712.356 540.309V439.431C712.356 436.07 709.718 433.344 706.462 433.344H516.165Z" fill="#D9D9D9"/>
<path fill-rule="evenodd" clip-rule="evenodd" d="M599.067 519.693C599.396 519.355 599.928 519.355 600.258 519.693L603.031 522.557L605.803 519.693C606.132 519.355 606.664 519.355 606.994 519.693C607.322 520.034 607.322 520.584 606.994 520.922L603.626 524.401C603.297 524.741 602.763 524.741 602.434 524.401L599.067 520.922C598.738 520.584 598.738 520.034 599.067 519.693Z" fill="#D9DBE8"/>
<path d="M540.719 521.611C540.719 518.97 542.793 516.828 545.35 516.828H588.294C590.851 516.828 592.925 518.97 592.925 521.611C592.925 524.253 590.851 526.394 588.294 526.394H545.35C542.793 526.394 540.719 524.253 540.719 521.611Z" fill="#E4E6EF"/>
<path d="M524.113 521.26C524.113 518.496 526.282 516.256 528.958 516.256H530.342C533.018 516.256 535.187 518.496 535.187 521.26C535.187 524.022 533.018 526.262 530.342 526.262H528.958C526.282 526.262 524.113 524.022 524.113 521.26Z" fill="#E4E6EF"/>
</g>
<g opacity="0.7">
<path d="M258.824 598.725C258.824 596.083 260.898 593.941 263.457 593.941H370.393C372.952 593.941 375.024 596.083 375.024 598.725C375.024 601.366 372.952 603.506 370.393 603.506H263.457C260.898 603.506 258.824 601.366 258.824 598.725Z" fill="#D9DBE8"/>
<path opacity="0.65" d="M258.824 616.988C258.824 614.347 260.898 612.205 263.457 612.205H429.337C431.893 612.205 433.967 614.347 433.967 616.988C433.967 619.63 431.893 621.77 429.337 621.77H263.457C260.898 621.77 258.824 619.63 258.824 616.988Z" fill="#EFF0F6"/>
<path opacity="0.65" d="M258.824 635.249C258.824 632.609 260.898 630.467 263.457 630.467H303.873C306.432 630.467 308.505 632.609 308.505 635.249C308.505 637.891 306.432 640.033 303.873 640.033H263.457C260.898 640.033 258.824 637.891 258.824 635.249Z" fill="#EFF0F6"/>
<path d="M410.242 659.405C410.242 657.748 411.543 656.402 413.151 656.402H427.691C429.297 656.402 430.6 657.748 430.6 659.405V674.425C430.6 676.082 429.297 677.427 427.691 677.427H413.151C411.543 677.427 410.242 676.082 410.242 674.425V659.405Z" fill="#001E30"/>
<path fill-rule="evenodd" clip-rule="evenodd" d="M425.103 662.388C425.648 662.859 425.718 663.697 425.261 664.258L419.858 670.903C419.613 671.204 419.253 671.377 418.872 671.377C418.492 671.377 418.132 671.204 417.887 670.903L415.571 668.055C415.114 667.493 415.184 666.656 415.728 666.183C416.273 665.711 417.086 665.784 417.542 666.346L418.872 667.983L423.291 662.55C423.747 661.989 424.559 661.915 425.103 662.388Z" fill="white"/>
<path fill-rule="evenodd" clip-rule="evenodd" d="M440.704 580.028H250.407C247.615 580.028 245.354 582.364 245.354 585.245V686.124C245.354 689.005 247.615 691.342 250.407 691.342H440.704C443.494 691.342 445.757 689.005 445.757 686.124V585.245C445.757 582.364 443.494 580.028 440.704 580.028ZM250.407 579.158C247.15 579.158 244.512 581.885 244.512 585.245V686.124C244.512 689.486 247.15 692.211 250.407 692.211H440.704C443.959 692.211 446.598 689.486 446.598 686.124V585.245C446.598 581.885 443.959 579.158 440.704 579.158H250.407Z" fill="#D9D9D9"/>
<path fill-rule="evenodd" clip-rule="evenodd" d="M333.31 665.508C333.637 665.169 334.171 665.169 334.5 665.508L337.272 668.371L340.045 665.508C340.375 665.169 340.907 665.169 341.237 665.508C341.565 665.848 341.565 666.398 341.237 666.737L337.867 670.217C337.54 670.555 337.005 670.555 336.678 670.217L333.31 666.737C332.98 666.398 332.98 665.848 333.31 665.508Z" fill="#D9DBE8"/>
<path d="M274.961 667.426C274.961 664.784 277.033 662.643 279.592 662.643H322.536C325.093 662.643 327.167 664.784 327.167 667.426C327.167 670.068 325.093 672.209 322.536 672.209H279.592C277.033 672.209 274.961 670.068 274.961 667.426Z" fill="#E4E6EF"/>
<path d="M258.355 667.074C258.355 664.31 260.524 662.07 263.199 662.07H264.584C267.259 662.07 269.428 664.31 269.428 667.074C269.428 669.837 267.259 672.077 264.584 672.077H263.199C260.524 672.077 258.355 669.837 258.355 667.074Z" fill="#E4E6EF"/>
</g>
<g opacity="0.7">
<path d="M524.586 598.725C524.586 596.083 526.66 593.941 529.217 593.941H636.155C638.712 593.941 640.786 596.083 640.786 598.725C640.786 601.366 638.712 603.506 636.155 603.506H529.217C526.66 603.506 524.586 601.366 524.586 598.725Z" fill="#D9DBE8"/>
<path opacity="0.65" d="M524.586 616.988C524.586 614.347 526.66 612.205 529.217 612.205H695.097C697.653 612.205 699.727 614.347 699.727 616.988C699.727 619.63 697.653 621.77 695.097 621.77H529.217C526.66 621.77 524.586 619.63 524.586 616.988Z" fill="#EFF0F6"/>
<path opacity="0.65" d="M524.586 635.249C524.586 632.609 526.66 630.467 529.217 630.467H569.635C572.192 630.467 574.266 632.609 574.266 635.249C574.266 637.891 572.192 640.033 569.635 640.033H529.217C526.66 640.033 524.586 637.891 524.586 635.249Z" fill="#EFF0F6"/>
<path d="M676.004 659.405C676.004 657.748 677.304 656.402 678.911 656.402H693.453C695.058 656.402 696.36 657.748 696.36 659.405V674.425C696.36 676.082 695.058 677.427 693.453 677.427H678.911C677.304 677.427 676.004 676.082 676.004 674.425V659.405Z" fill="#001E30"/>
<path fill-rule="evenodd" clip-rule="evenodd" d="M690.861 662.388C691.405 662.859 691.476 663.697 691.019 664.258L685.615 670.903C685.37 671.204 685.01 671.377 684.63 671.377C684.25 671.377 683.889 671.204 683.644 670.903L681.329 668.055C680.871 667.493 680.943 666.656 681.486 666.183C682.03 665.711 682.843 665.784 683.299 666.346L684.63 667.983L689.048 662.55C689.505 661.989 690.318 661.915 690.861 662.388Z" fill="white"/>
<path fill-rule="evenodd" clip-rule="evenodd" d="M706.462 580.028H516.165C513.375 580.028 511.112 582.364 511.112 585.245V686.124C511.112 689.005 513.375 691.342 516.165 691.342H706.462C709.253 691.342 711.515 689.005 711.515 686.124V585.245C711.515 582.364 709.253 580.028 706.462 580.028ZM516.165 579.158C512.91 579.158 510.27 581.885 510.27 585.245V686.124C510.27 689.486 512.91 692.211 516.165 692.211H706.462C709.718 692.211 712.356 689.486 712.356 686.124V585.245C712.356 581.885 709.718 579.158 706.462 579.158H516.165Z" fill="#D9D9D9"/>
<path fill-rule="evenodd" clip-rule="evenodd" d="M599.067 665.508C599.396 665.169 599.928 665.169 600.258 665.508L603.031 668.371L605.803 665.508C606.132 665.169 606.664 665.169 606.994 665.508C607.322 665.848 607.322 666.398 606.994 666.737L603.626 670.217C603.297 670.555 602.763 670.555 602.434 670.217L599.067 666.737C598.738 666.398 598.738 665.848 599.067 665.508Z" fill="#D9DBE8"/>
<path d="M540.719 667.426C540.719 664.784 542.793 662.643 545.35 662.643H588.294C590.851 662.643 592.925 664.784 592.925 667.426C592.925 670.068 590.851 672.209 588.294 672.209H545.35C542.793 672.209 540.719 670.068 540.719 667.426Z" fill="#E4E6EF"/>
<path d="M524.113 667.074C524.113 664.31 526.282 662.07 528.958 662.07H530.342C533.018 662.07 535.187 664.31 535.187 667.074C535.187 669.837 533.018 672.077 530.342 672.077H528.958C526.282 672.077 524.113 669.837 524.113 667.074Z" fill="#E4E6EF"/>
</g>
<path d="M786.188 598.726C786.188 596.085 788.261 593.943 790.82 593.943H897.756C900.315 593.943 902.388 596.085 902.388 598.726C902.388 601.368 900.315 603.508 897.756 603.508H790.82C788.261 603.508 786.188 601.368 786.188 598.726Z" fill="#D9DBE8"/>
<path opacity="0.65" d="M786.188 616.988C786.188 614.345 788.261 612.203 790.82 612.203H956.7C959.256 612.203 961.33 614.345 961.33 616.988C961.33 619.628 959.256 621.769 956.7 621.769H790.82C788.261 621.769 786.188 619.628 786.188 616.988Z" fill="#EFF0F6"/>
<path opacity="0.65" d="M786.188 635.249C786.188 632.609 788.261 630.467 790.82 630.467H831.236C833.795 630.467 835.869 632.609 835.869 635.249C835.869 637.891 833.795 640.033 831.236 640.033H790.82C788.261 640.033 786.188 637.891 786.188 635.249Z" fill="#EFF0F6"/>
<path d="M937.609 659.405C937.609 657.748 938.911 656.402 940.518 656.402H955.058C956.664 656.402 957.967 657.748 957.967 659.405V674.425C957.967 676.082 956.664 677.427 955.058 677.427H940.518C938.911 677.427 937.609 676.082 937.609 674.425V659.405Z" fill="#001E30"/>
<path fill-rule="evenodd" clip-rule="evenodd" d="M952.466 662.388C953.011 662.859 953.081 663.697 952.625 664.258L947.221 670.903C946.976 671.204 946.616 671.377 946.235 671.377C945.856 671.377 945.495 671.204 945.25 670.903L942.934 668.055C942.478 667.493 942.548 666.656 943.091 666.183C943.636 665.711 944.449 665.784 944.905 666.346L946.235 667.983L950.654 662.55C951.11 661.989 951.923 661.915 952.466 662.388Z" fill="white"/>
<path fill-rule="evenodd" clip-rule="evenodd" d="M968.067 580.028H777.77C774.979 580.028 772.718 582.364 772.718 585.245V686.124C772.718 689.005 774.979 691.342 777.77 691.342H968.067C970.857 691.342 973.12 689.005 973.12 686.124V585.245C973.12 582.364 970.857 580.028 968.067 580.028ZM777.77 579.158C774.514 579.158 771.875 581.885 771.875 585.245V686.124C771.875 689.486 774.514 692.211 777.77 692.211H968.067C971.322 692.211 973.961 689.486 973.961 686.124V585.245C973.961 581.885 971.322 579.158 968.067 579.158H777.77Z" fill="#D9D9D9"/>
<path fill-rule="evenodd" clip-rule="evenodd" d="M860.673 665.506C861.001 665.167 861.533 665.167 861.863 665.506L864.636 668.369L867.408 665.506C867.738 665.167 868.271 665.167 868.6 665.506C868.928 665.846 868.928 666.396 868.6 666.735L865.231 670.215C864.903 670.553 864.368 670.553 864.041 670.215L860.673 666.735C860.343 666.396 860.343 665.846 860.673 665.506Z" fill="#D9DBE8"/>
<path d="M802.324 667.426C802.324 664.784 804.397 662.643 806.955 662.643H849.899C852.457 662.643 854.53 664.784 854.53 667.426C854.53 670.068 852.457 672.209 849.899 672.209H806.955C804.397 672.209 802.324 670.068 802.324 667.426Z" fill="#E4E6EF"/>
<path d="M785.719 667.074C785.719 664.31 787.887 662.07 790.562 662.07H791.948C794.623 662.07 796.791 664.31 796.791 667.074C796.791 669.837 794.623 672.078 791.948 672.078H790.562C787.887 672.078 785.719 669.837 785.719 667.074Z" fill="#E4E6EF"/>
<path d="M872.227 333.277C872.227 332.488 872.847 331.848 873.61 331.848C874.375 331.848 874.994 332.488 874.994 333.277V354.72C874.994 355.51 874.375 356.15 873.61 356.15C872.847 356.15 872.227 355.51 872.227 354.72V333.277Z" fill="#001E30"/>
<path d="M883.99 342.57C884.755 342.57 885.374 343.211 885.374 343.999C885.374 344.79 884.755 345.43 883.99 345.43H863.227C862.464 345.43 861.844 344.79 861.844 343.999C861.844 343.211 862.464 342.57 863.227 342.57H883.99Z" fill="#001E30"/>
<path d="M248.664 158.16C248.664 154.607 251.454 151.727 254.893 151.727H328.254C331.695 151.727 334.483 154.607 334.483 158.16C334.483 161.712 331.695 164.593 328.254 164.593H254.893C251.454 164.593 248.664 161.712 248.664 158.16Z" fill="#D9DBE8"/>
<path d="M510.27 158.16C510.27 154.607 513.058 151.727 516.498 151.727H582.938C586.378 151.727 589.167 154.607 589.167 158.16C589.167 161.712 586.378 164.593 582.938 164.593H516.498C513.058 164.593 510.27 161.712 510.27 158.16Z" fill="#D9DBE8"/>
<path d="M771.875 158.16C771.875 154.607 774.664 151.727 778.102 151.727H851.464C854.905 151.727 857.692 154.607 857.692 158.16C857.692 161.712 854.905 164.593 851.464 164.593H778.102C774.664 164.593 771.875 161.712 771.875 158.16Z" fill="#D9DBE8"/>
<path opacity="0.65" d="M248.664 182.46C248.664 178.908 251.454 176.027 254.893 176.027H372.547C375.988 176.027 378.775 178.908 378.775 182.46C378.775 186.012 375.988 188.893 372.547 188.893H254.893C251.454 188.893 248.664 186.012 248.664 182.46Z" fill="#EFF0F6"/>
<path opacity="0.65" d="M510.27 182.46C510.27 178.908 513.058 176.027 516.498 176.027H623.078C626.52 176.027 629.307 178.908 629.307 182.46C629.307 186.012 626.52 188.893 623.078 188.893H516.498C513.058 188.893 510.27 186.012 510.27 182.46Z" fill="#EFF0F6"/>
<path opacity="0.65" d="M771.875 182.46C771.875 178.908 774.664 176.027 778.102 176.027H895.756C899.197 176.027 901.985 178.908 901.985 182.46C901.985 186.012 899.197 188.893 895.756 188.893H778.102C774.664 188.893 771.875 186.012 771.875 182.46Z" fill="#EFF0F6"/>
<g filter="url(#filter1_d_1_29)">
<path d="M997.492 41.6521C997.492 29.8094 1006.79 20.209 1018.25 20.209H1225.87C1237.35 20.209 1246.64 29.8094 1246.64 41.6521V446.211C1246.64 458.054 1237.35 467.655 1225.87 467.655H1018.25C1006.79 467.655 997.492 458.054 997.492 446.211V41.6521Z" fill="white"/>
</g>
<path opacity="0.1" fill-rule="evenodd" clip-rule="evenodd" d="M1061.55 467.308V110.037H1062.46V467.308H1061.55Z" fill="black"/>
<path opacity="0.1" fill-rule="evenodd" clip-rule="evenodd" d="M1229.1 137.72H1013.76V136.781H1229.1V137.72Z" fill="black"/>
<path opacity="0.05" fill-rule="evenodd" clip-rule="evenodd" d="M1229.1 158.365H1013.76V157.428H1229.1V158.365Z" fill="black"/>
<path opacity="0.05" fill-rule="evenodd" clip-rule="evenodd" d="M1229.1 204.346H1013.76V203.406H1229.1V204.346Z" fill="black"/>
<path opacity="0.05" fill-rule="evenodd" clip-rule="evenodd" d="M1229.1 249.386H1013.76V248.449H1229.1V249.386Z" fill="black"/>
<path opacity="0.05" fill-rule="evenodd" clip-rule="evenodd" d="M1229.1 294.43H1013.76V293.49H1229.1V294.43Z" fill="black"/>
<path opacity="0.05" fill-rule="evenodd" clip-rule="evenodd" d="M1229.1 338.631H1013.76V337.693H1229.1V338.631Z" fill="black"/>
<path opacity="0.05" fill-rule="evenodd" clip-rule="evenodd" d="M1229.1 382.834H1013.76V381.896H1229.1V382.834Z" fill="black"/>
<path opacity="0.05" fill-rule="evenodd" clip-rule="evenodd" d="M1229.1 427.037H1013.76V426.098H1229.1V427.037Z" fill="black"/>
<path opacity="0.1" fill-rule="evenodd" clip-rule="evenodd" d="M1246.45 110.505H997.492V109.566H1246.45V110.505Z" fill="black"/>
<path d="M1045.49 162.586H1018.24C1015.48 162.586 1013.24 164.897 1013.24 167.747C1013.24 170.598 1015.48 172.909 1018.24 172.909H1045.49C1048.25 172.909 1050.49 170.598 1050.49 167.747C1050.49 164.897 1048.25 162.586 1045.49 162.586Z" fill="#D9DBE8"/>
<path opacity="0.1" d="M1013.85 181.354H1229.19" stroke="black" stroke-width="0.656422"/>
<path d="M1123.75 122.982C1123.75 120.131 1125.99 117.82 1128.75 117.82H1156C1158.76 117.82 1161 120.131 1161 122.982C1161 125.831 1158.76 128.143 1156 128.143H1128.75C1125.99 128.143 1123.75 125.831 1123.75 122.982Z" fill="#D9DBE8"/>
<path d="M1045.49 208.566H1018.24C1015.48 208.566 1013.24 210.876 1013.24 213.726C1013.24 216.577 1015.48 218.888 1018.24 218.888H1045.49C1048.25 218.888 1050.49 216.577 1050.49 213.726C1050.49 210.876 1048.25 208.566 1045.49 208.566Z" fill="#D9DBE8"/>
<path opacity="0.1" d="M1013.85 227.334H1229.19" stroke="black" stroke-width="0.656422"/>
<path d="M1045.49 298.65H1018.24C1015.48 298.65 1013.24 300.961 1013.24 303.812C1013.24 306.661 1015.48 308.972 1018.24 308.972H1045.49C1048.25 308.972 1050.49 306.661 1050.49 303.812C1050.49 300.961 1048.25 298.65 1045.49 298.65Z" fill="#D9DBE8"/>
<path opacity="0.1" d="M1013.85 317.42H1229.19" stroke="black" stroke-width="0.656422"/>
<path d="M1045.49 342.855H1018.24C1015.48 342.855 1013.24 345.166 1013.24 348.017C1013.24 350.867 1015.48 353.178 1018.24 353.178H1045.49C1048.25 353.178 1050.49 350.867 1050.49 348.017C1050.49 345.166 1048.25 342.855 1045.49 342.855Z" fill="#D9DBE8"/>
<path opacity="0.1" d="M1013.85 361.621H1229.19" stroke="black" stroke-width="0.656422"/>
<path d="M1045.49 387.059H1018.24C1015.48 387.059 1013.24 389.369 1013.24 392.22C1013.24 395.07 1015.48 397.381 1018.24 397.381H1045.49C1048.25 397.381 1050.49 395.07 1050.49 392.22C1050.49 389.369 1048.25 387.059 1045.49 387.059Z" fill="#D9DBE8"/>
<path opacity="0.1" d="M1013.85 405.822H1229.19" stroke="black" stroke-width="0.656422"/>
<path d="M1045.49 431.26H1018.24C1015.48 431.26 1013.24 433.569 1013.24 436.42C1013.24 439.27 1015.48 441.581 1018.24 441.581H1045.49C1048.25 441.581 1050.49 439.27 1050.49 436.42C1050.49 433.569 1048.25 431.26 1045.49 431.26Z" fill="#D9DBE8"/>
<path opacity="0.1" d="M1013.85 450.027H1229.19" stroke="black" stroke-width="0.656422"/>
<path d="M1045.49 254.549H1018.24C1015.48 254.549 1013.24 256.86 1013.24 259.709C1013.24 262.559 1015.48 264.87 1018.24 264.87H1045.49C1048.25 264.87 1050.49 262.559 1050.49 259.709C1050.49 256.86 1048.25 254.549 1045.49 254.549Z" fill="#D9DBE8"/>
<path opacity="0.1" d="M1013.85 273.316H1229.19" stroke="black" stroke-width="0.656422"/>
<path d="M1023.84 43.9539C1023.84 46.8043 1021.6 49.115 1018.84 49.115C1016.08 49.115 1013.85 46.8043 1013.85 43.9539C1013.85 41.1036 1016.08 38.793 1018.84 38.793C1021.6 38.793 1023.84 41.1036 1023.84 43.9539Z" fill="#001E30"/>
<path d="M1042.92 43.9539C1042.92 46.8043 1040.69 49.115 1037.93 49.115C1035.17 49.115 1032.93 46.8043 1032.93 43.9539C1032.93 41.1036 1035.17 38.793 1037.93 38.793C1040.69 38.793 1042.92 41.1036 1042.92 43.9539Z" fill="#D9D9D9"/>
<path d="M1012.72 78.8182C1012.72 74.0816 1016.44 70.2422 1021.02 70.2422H1140.06C1144.65 70.2422 1148.36 74.0816 1148.36 78.8182C1148.36 83.5561 1144.65 87.3955 1140.06 87.3955H1021.02C1016.44 87.3955 1012.72 83.5561 1012.72 78.8182Z" fill="#D9DBE8"/>
<path d="M1062 43.9539C1062 46.8043 1059.76 49.115 1057 49.115C1054.24 49.115 1052.01 46.8043 1052.01 43.9539C1052.01 41.1036 1054.24 38.793 1057 38.793C1059.76 38.793 1062 41.1036 1062 43.9539Z" fill="#D9D9D9"/>
<path d="M1069.11 216.615C1069.11 212.598 1072.26 209.342 1076.15 209.342H1257.59C1261.49 209.342 1264.64 212.598 1264.64 216.615V256.601C1264.64 260.617 1261.49 263.874 1257.59 263.874H1076.15C1072.26 263.874 1069.11 260.617 1069.11 256.601V216.615Z" fill="#001E30"/>
<path opacity="0.34" d="M1106.24 236.777H1087.26C1084.65 236.777 1082.54 238.96 1082.54 241.652C1082.54 244.344 1084.65 246.526 1087.26 246.526H1106.24C1108.85 246.526 1110.96 244.344 1110.96 241.652C1110.96 238.96 1108.85 236.777 1106.24 236.777Z" fill="white"/>
<path opacity="0.1" d="M1083 254.5H1247.31" stroke="white" stroke-width="0.635915"/>
<path opacity="0.6" d="M1081.92 222.49C1081.92 219.726 1084.09 217.486 1086.77 217.486H1172.58C1175.26 217.486 1177.43 219.726 1177.43 222.49C1177.43 225.253 1175.26 227.493 1172.58 227.493H1086.77C1084.09 227.493 1081.92 225.253 1081.92 222.49Z" fill="white"/>
</g>
<defs>
<filter id="filter0_d_1_29" x="96.6016" y="-56.1992" width="1245.35" height="903.326" filterUnits="userSpaceOnUse" color-interpolation-filters="sRGB">
<feFlood flood-opacity="0" result="BackgroundImageFix"/>
<feColorMatrix in="SourceAlpha" type="matrix" values="0 0 0 0 0 0 0 0 0 0 0 0 0 0 0 0 0 0 127 0" result="hardAlpha"/>
<feOffset/>
<feGaussianBlur stdDeviation="52.5"/>
<feColorMatrix type="matrix" values="0 0 0 0 0 0 0 0 0 0 0 0 0 0 0 0 0 0 0.07 0"/>
<feBlend mode="normal" in2="BackgroundImageFix" result="effect1_dropShadow_1_29"/>
<feBlend mode="normal" in="SourceGraphic" in2="effect1_dropShadow_1_29" result="shape"/>
</filter>
<filter id="filter1_d_1_29" x="919.492" y="-57.791" width="405.145" height="603.446" filterUnits="userSpaceOnUse" color-interpolation-filters="sRGB">
<feFlood flood-opacity="0" result="BackgroundImageFix"/>
<feColorMatrix in="SourceAlpha" type="matrix" values="0 0 0 0 0 0 0 0 0 0 0 0 0 0 0 0 0 0 127 0" result="hardAlpha"/>
<feOffset/>
<feGaussianBlur stdDeviation="39"/>
<feComposite in2="hardAlpha" operator="out"/>
<feColorMatrix type="matrix" values="0 0 0 0 0 0 0 0 0 0 0 0 0 0 0 0 0 0 0.07 0"/>
<feBlend mode="normal" in2="BackgroundImageFix" result="effect1_dropShadow_1_29"/>
<feBlend mode="normal" in="SourceGraphic" in2="effect1_dropShadow_1_29" result="shape"/>
</filter>
<clipPath id="clip0_1_29">
<rect width="1435" height="816" fill="white"/>
</clipPath>
</defs>
</svg>
